<?xml version="1.0" encoding="utf-8"?>
<!-- Generator: Adobe Illustrator 26.0.1, SVG Export Plug-In . SVG Version: 6.00 Build 0)  -->
<svg version="1.1" id="Capa_1" xmlns="http://www.w3.org/2000/svg" xmlns:xlink="http://www.w3.org/1999/xlink" x="0px" y="0px"
	 viewBox="0 0 1027 294" style="enable-background:new 0 0 1027 294;" xml:space="preserve">
<style type="text/css">
	.st0{fill:#8DBF31;}
	.st1{fill:#FFFFFF;}
	.st2{fill:#FFE00A;}
	.st3{fill:#068298;}
	
		.st4{clip-path:url(#SVGID_00000029750875843302327900000013847083770787107731_);fill:url(#SVGID_00000062183022306587927520000017086077133744573070_);}
	
		.st5{clip-path:url(#SVGID_00000029750875843302327900000013847083770787107731_);fill:url(#SVGID_00000134247100526963484070000008578113497169007506_);}
	
		.st6{clip-path:url(#SVGID_00000029750875843302327900000013847083770787107731_);fill:url(#SVGID_00000013162559408532207000000009059820455287933876_);}
	.st7{clip-path:url(#SVGID_00000029750875843302327900000013847083770787107731_);}
	.st8{clip-path:url(#SVGID_00000070115445312419507210000010982921965700170665_);}
	.st9{fill:url(#SVGID_00000065032462046102383960000017970304607083420844_);}
	.st10{fill:#E7E7F5;}
	.st11{fill:url(#SVGID_00000129914760090575008920000015013769220901308838_);}
	.st12{fill:url(#SVGID_00000136400757902146515160000010071465465892759183_);}
	.st13{fill:url(#SVGID_00000018915817161097250180000012065643875506103478_);}
	.st14{fill:url(#SVGID_00000142891907084736602450000005980352726101894544_);}
	.st15{fill:url(#SVGID_00000034767846863061706410000017667148256888923062_);}
	.st16{fill:#549037;}
	.st17{fill:#C8DB81;}
</style>
<g>
	<path class="st0" d="M771.8,261H71.9C32.2,261,0,228.8,0,189.1v0c0-39.7,32.2-71.9,71.9-71.9h699.9c39.7,0,71.9,32.2,71.9,71.9v0
		C843.6,228.8,811.5,261,771.8,261z"/>
	<g>
		<g>
			<path class="st1" d="M355.7,144.4v-0.9h5v1.3c0,4-4.7,4.7-4.7,7.3c0,1,1,1.8,2.1,1.8c1.4,0,2.8-1.3,2.8-1.3l2.9,3.5
				c0,0-2.2,2.5-6.2,2.5c-3.3,0-7-2-7-5.9C350.6,147.7,355.7,147,355.7,144.4z M355.8,136.8h4.7v4.5h-4.7V136.8z"/>
			<path class="st1" d="M364.9,130.9h5.3l5.9,10c0.8,1.4,1.8,3.6,1.8,3.6h0.1c0,0-0.2-2.3-0.2-3.6v-10h5.2v21.4h-5.3l-5.9-9.9
				c-0.8-1.4-1.8-3.6-1.8-3.6h-0.1c0,0,0.2,2.3,0.2,3.6v9.9h-5.2V130.9z"/>
			<path class="st1" d="M392.4,136.5c4.5,0,7.1,3.2,7.1,7.4c0,0.5-0.1,1.6-0.1,1.6h-9.7c0.4,1.9,1.9,2.7,3.6,2.7
				c2.2,0,4.2-1.6,4.2-1.6l1.9,3.6c0,0-2.5,2.2-6.6,2.2c-5.5,0-8.5-4-8.5-8.1C384.4,140,387.5,136.5,392.4,136.5z M394.3,142.6
				c0-1.2-0.8-2.2-2-2.2c-1.5,0-2.2,1.1-2.5,2.2H394.3z"/>
			<path class="st1" d="M408,136.5c4.2,0,6.1,2.3,6.1,2.3l-2.2,3.5c0,0-1.5-1.5-3.6-1.5c-2.4,0-3.7,1.9-3.7,3.7
				c0,1.8,1.3,3.8,3.9,3.8c2.1,0,4.2-1.9,4.2-1.9l1.9,3.6c0,0-2.3,2.5-6.6,2.5c-5.5,0-8.6-3.8-8.6-8.1
				C399.4,140.4,402.4,136.5,408,136.5z"/>
			<path class="st1" d="M422.1,136.5c4.5,0,7.1,3.2,7.1,7.4c0,0.5-0.1,1.6-0.1,1.6h-9.7c0.4,1.9,1.9,2.7,3.6,2.7
				c2.2,0,4.2-1.6,4.2-1.6l1.9,3.6c0,0-2.5,2.2-6.6,2.2c-5.5,0-8.5-4-8.5-8.1C414.1,140,417.1,136.5,422.1,136.5z M424,142.6
				c0-1.2-0.8-2.2-2-2.2c-1.5,0-2.2,1.1-2.5,2.2H424z"/>
			<path class="st1" d="M431.2,146.9c0,0,1.7,1.6,3.9,1.6c0.8,0,1.5-0.2,1.5-0.7c0-1.3-7.2-1.5-7.2-6.5c0-2.9,2.8-4.7,6.3-4.7
				c3.6,0,5.4,1.8,5.4,1.8l-1.8,3.7c0,0-1.5-1.3-3.6-1.3c-0.8,0-1.5,0.2-1.5,0.7c0,1.2,7.2,1.3,7.2,6.3c0,2.6-2.3,4.9-6.3,4.9
				c-3.9,0-6.2-2.3-6.2-2.3L431.2,146.9z"/>
			<path class="st1" d="M442.5,136.8h5.2v15.4h-5.2V136.8z M442.5,130.9h5v4h-5V130.9z"/>
			<path class="st1" d="M450.5,141.1h-2v-4h2.1v-4.4h5v4.4h3.2v4h-3.2v4.7c0,1.7,1.8,2,2.7,2c0.4,0,0.7,0,0.7,0v4.5
				c0,0-0.6,0.1-1.4,0.1c-2.4,0-7.2-0.7-7.2-5.8V141.1z"/>
			<path class="st1" d="M468,142.6h0.2v-0.3c0-1.3-1-1.7-2.3-1.7c-1.9,0-4.2,1.5-4.2,1.5l-1.8-3.6c0,0,2.7-2,6.5-2
				c4.3,0,6.9,2.4,6.9,6.3v9.5h-4.7v-0.9c0-0.5,0.1-1,0.1-1h-0.1c0,0-1.1,2.2-4.4,2.2c-2.9,0-5.2-1.9-5.2-5
				C459.1,143.1,465.7,142.6,468,142.6z M465.8,148.6c1.3,0,2.5-1.5,2.5-2.7v-0.3h-0.5c-1.6,0-3.5,0.5-3.5,1.8
				C464.3,148.1,464.8,148.6,465.8,148.6z"/>
			<path class="st1" d="M476.2,146.9c0,0,1.7,1.6,3.9,1.6c0.8,0,1.5-0.2,1.5-0.7c0-1.3-7.2-1.5-7.2-6.5c0-2.9,2.8-4.7,6.3-4.7
				c3.6,0,5.4,1.8,5.4,1.8l-1.8,3.7c0,0-1.5-1.3-3.6-1.3c-0.8,0-1.5,0.2-1.5,0.7c0,1.2,7.2,1.3,7.2,6.3c0,2.6-2.3,4.9-6.3,4.9
				c-3.9,0-6.2-2.3-6.2-2.3L476.2,146.9z"/>
			<path class="st1" d="M492.5,136.8h5v1.3c0,0.5-0.1,1-0.1,1h0.1c0.7-1.1,2.2-2.7,4.6-2.7c1.9,0,3.5,0.9,4.3,2.6h0.1
				c0.8-1.3,2.6-2.6,4.9-2.6c2.8,0,5,1.5,5,5.8v10h-5.2v-9.1c0-1.1-0.2-1.9-1.2-1.9c-1.6,0-2.5,1.2-2.8,2.9
				c-0.1,0.5-0.1,1.2-0.1,1.8v6.4h-5.2v-9.1c0-1.1-0.2-1.9-1.2-1.9c-1.6,0-2.4,1.1-2.8,2.8c-0.1,0.6-0.1,1.3-0.1,1.9v6.4h-5.2V136.8
				z"/>
			<path class="st1" d="M525.9,142.6h0.2v-0.3c0-1.3-1-1.7-2.3-1.7c-1.9,0-4.2,1.5-4.2,1.5l-1.8-3.6c0,0,2.7-2,6.5-2
				c4.3,0,6.9,2.4,6.9,6.3v9.5h-4.7v-0.9c0-0.5,0.1-1,0.1-1h-0.1c0,0-1.1,2.2-4.4,2.2c-2.9,0-5.2-1.9-5.2-5
				C517,143.1,523.5,142.6,525.9,142.6z M523.6,148.6c1.3,0,2.5-1.5,2.5-2.7v-0.3h-0.5c-1.6,0-3.5,0.5-3.5,1.8
				C522.2,148.1,522.6,148.6,523.6,148.6z M524.8,130.9h5.1l-3.5,4.5h-4L524.8,130.9z"/>
			<path class="st1" d="M534.1,146.9c0,0,1.7,1.6,3.9,1.6c0.8,0,1.5-0.2,1.5-0.7c0-1.3-7.2-1.5-7.2-6.5c0-2.9,2.8-4.7,6.3-4.7
				c3.6,0,5.4,1.8,5.4,1.8l-1.8,3.7c0,0-1.5-1.3-3.6-1.3c-0.8,0-1.5,0.2-1.5,0.7c0,1.2,7.2,1.3,7.2,6.3c0,2.6-2.3,4.9-6.3,4.9
				c-3.9,0-6.2-2.3-6.2-2.3L534.1,146.9z"/>
			<path class="st1" d="M550.4,136.8h5.2v15.4h-5.2V136.8z M550.5,130.9h5v4h-5V130.9z"/>
			<path class="st1" d="M557.6,136.8h5v1.3c0,0.5-0.1,1-0.1,1h0.1c0.7-1.2,2.2-2.7,4.9-2.7c3.1,0,5.5,1.4,5.5,5.8v10h-5.2v-9
				c0-1.4-0.6-2-1.7-2c-1.6,0-2.6,0.9-3,2.2c-0.2,0.6-0.3,1.3-0.3,2v6.8h-5.2V136.8z"/>
			<path class="st1" d="M575.7,141.1h-1.9v-4h1.9v-0.6c0-5,4.6-5.7,7-5.7c0.9,0,1.6,0.1,1.6,0.1v4.4c0,0-0.4-0.1-0.8-0.1
				c-1,0-2.6,0.2-2.6,1.5v0.5h2.8v4h-2.8v11.1h-5.2V141.1z"/>
			<path class="st1" d="M591.9,136.5c4.9,0,8.8,3.3,8.8,8.1c0,4.8-3.9,8-8.7,8s-8.7-3.2-8.7-8C583.2,139.7,587.1,136.5,591.9,136.5z
				 M592,148.3c1.9,0,3.5-1.4,3.5-3.7c0-2.3-1.6-3.8-3.5-3.8c-1.9,0-3.5,1.5-3.5,3.8C588.5,146.9,590.1,148.3,592,148.3z"/>
			<path class="st1" d="M601.6,136.8h5v2.6c0,0.5-0.1,1-0.1,1h0.1c0.7-2.1,2.6-3.8,4.9-3.8c0.3,0,0.6,0.1,0.6,0.1v5.1
				c0,0-0.4-0.1-1-0.1c-1.2,0-3.2,0.4-4,2.7c-0.2,0.6-0.3,1.3-0.3,2.1v5.8h-5.2V136.8z"/>
			<path class="st1" d="M612.6,136.8h5v1.3c0,0.5-0.1,1-0.1,1h0.1c0.7-1.1,2.2-2.7,4.6-2.7c1.9,0,3.5,0.9,4.3,2.6h0.1
				c0.8-1.3,2.6-2.6,4.9-2.6c2.8,0,5,1.5,5,5.8v10h-5.2v-9.1c0-1.1-0.2-1.9-1.2-1.9c-1.6,0-2.5,1.2-2.8,2.9
				c-0.1,0.5-0.1,1.2-0.1,1.8v6.4h-5.2v-9.1c0-1.1-0.2-1.9-1.2-1.9c-1.6,0-2.4,1.1-2.8,2.8c-0.1,0.6-0.1,1.3-0.1,1.9v6.4h-5.2V136.8
				z"/>
			<path class="st1" d="M646,142.6h0.2v-0.3c0-1.3-1-1.7-2.3-1.7c-1.9,0-4.2,1.5-4.2,1.5l-1.8-3.6c0,0,2.7-2,6.5-2
				c4.3,0,6.9,2.4,6.9,6.3v9.5h-4.7v-0.9c0-0.5,0.1-1,0.1-1h-0.1c0,0-1.1,2.2-4.4,2.2c-2.9,0-5.2-1.9-5.2-5
				C637.1,143.1,643.6,142.6,646,142.6z M643.7,148.6c1.3,0,2.5-1.5,2.5-2.7v-0.3h-0.5c-1.6,0-3.5,0.5-3.5,1.8
				C642.3,148.1,642.7,148.6,643.7,148.6z"/>
			<path class="st1" d="M660.6,136.5c4.2,0,6.1,2.3,6.1,2.3l-2.2,3.5c0,0-1.5-1.5-3.6-1.5c-2.4,0-3.7,1.9-3.7,3.7
				c0,1.8,1.3,3.8,3.9,3.8c2.1,0,4.2-1.9,4.2-1.9l1.9,3.6c0,0-2.3,2.5-6.6,2.5c-5.5,0-8.6-3.8-8.6-8.1
				C652,140.4,655.1,136.5,660.6,136.5z"/>
			<path class="st1" d="M667.8,136.8h5.2v15.4h-5.2V136.8z M667.9,130.9h5v4h-5V130.9z"/>
			<path class="st1" d="M682.6,136.5c4.9,0,8.8,3.3,8.8,8.1c0,4.8-3.9,8-8.7,8s-8.7-3.2-8.7-8C673.9,139.7,677.8,136.5,682.6,136.5z
				 M682.6,148.3c1.9,0,3.5-1.4,3.5-3.7c0-2.3-1.6-3.8-3.5-3.8c-1.9,0-3.5,1.5-3.5,3.8C679.1,146.9,680.7,148.3,682.6,148.3z
				 M682.9,130.9h5.1l-3.5,4.5h-4L682.9,130.9z"/>
			<path class="st1" d="M692.2,136.8h5v1.3c0,0.5-0.1,1-0.1,1h0.1c0.7-1.2,2.2-2.7,4.9-2.7c3.1,0,5.5,1.4,5.5,5.8v10h-5.2v-9
				c0-1.4-0.6-2-1.7-2c-1.6,0-2.6,0.9-3,2.2c-0.2,0.6-0.3,1.3-0.3,2v6.8h-5.2V136.8z"/>
			<path class="st1" d="M711.2,144.1c0-4,4.7-4.7,4.7-7.3c0-1-1-1.8-2.1-1.8c-1.4,0-2.8,1.3-2.8,1.3l-2.9-3.5c0,0,2.2-2.5,6.2-2.5
				c3.3,0,7,2,7,5.9c0,4.9-5.1,5.6-5.1,8.3v1.1h-5V144.1z M711.3,147.7h4.7v4.5h-4.7V147.7z"/>
		</g>
	</g>
	<g>
		<path class="st1" d="M369,161.1c8.1,0,12.3,4.6,12.3,4.6l-3.7,6.1c0,0-3.7-3.4-8.2-3.4c-6.3,0-9.3,4.6-9.3,9.4
			c0,4.9,3.2,9.9,9.3,9.9c5,0,8.7-4,8.7-4l4.1,5.9c0,0-4.6,5.5-13.2,5.5c-10.3,0-17.2-7.3-17.2-17.1
			C351.8,168.5,359.1,161.1,369,161.1z"/>
		<path class="st1" d="M383.5,161.7h8v10.4c0,1.2-0.1,2-0.1,2h0.1c1.3-2.3,4.1-3.8,7.2-3.8c4.8,0,8.5,2.2,8.5,8.9v15.4h-8v-13.9
			c0-2.2-0.9-3.1-2.6-3.1c-2.4,0-4,1.4-4.7,3.5c-0.3,0.9-0.4,1.9-0.4,3v10.5h-8V161.7z"/>
		<path class="st1" d="M421.9,179.8h0.3v-0.4c0-2-1.5-2.6-3.5-2.6c-3,0-6.4,2.3-6.4,2.3l-2.8-5.6c0,0,4.1-3.1,9.9-3.1
			c6.7,0,10.7,3.6,10.7,9.7v14.6h-7.3v-1.4c0-0.8,0.1-1.5,0.1-1.5h-0.1c0,0-1.7,3.4-6.7,3.4c-4.4,0-8-2.9-8-7.6
			C408.2,180.6,418.2,179.8,421.9,179.8z M418.4,189.1c2.1,0,3.9-2.3,3.9-4.2v-0.5h-0.7c-2.5,0-5.4,0.7-5.4,2.7
			C416.2,188.2,416.9,189.1,418.4,189.1z"/>
		<path class="st1" d="M434.1,177.5h-3v-6.2h3.3v-6.8h7.7v6.8h5v6.2h-5v7.3c0,2.7,2.7,3,4.2,3c0.6,0,1.1,0,1.1,0v6.9
			c0,0-0.9,0.1-2.2,0.1c-3.8,0-11.1-1-11.1-9V177.5z"/>
		<path class="st1" d="M459.9,170.3c7,0,10.9,4.9,10.9,11.5c0,0.8-0.2,2.5-0.2,2.5h-14.9c0.6,2.9,3,4.2,5.5,4.2
			c3.4,0,6.5-2.4,6.5-2.4l2.9,5.6c0,0-3.8,3.4-10.1,3.4c-8.5,0-13-6.1-13-12.4C447.6,175.8,452.3,170.3,459.9,170.3z M462.8,179.7
			c0-1.8-1.2-3.4-3.1-3.4c-2.3,0-3.4,1.7-3.8,3.4H462.8z"/>
		<path class="st1" d="M484.4,179.8h0.3v-0.4c0-2-1.5-2.6-3.5-2.6c-3,0-6.4,2.3-6.4,2.3l-2.8-5.6c0,0,4.1-3.1,9.9-3.1
			c6.7,0,10.7,3.6,10.7,9.7v14.6h-7.3v-1.4c0-0.8,0.1-1.5,0.1-1.5h-0.1c0,0-1.7,3.4-6.7,3.4c-4.4,0-8-2.9-8-7.6
			C470.6,180.6,480.7,179.8,484.4,179.8z M480.9,189.1c2.1,0,3.9-2.3,3.9-4.2v-0.5H484c-2.5,0-5.4,0.7-5.4,2.7
			C478.6,188.2,479.3,189.1,480.9,189.1z"/>
		<path class="st1" d="M514.6,170.3c6.4,0,9.4,3.6,9.4,3.6l-3.4,5.3c0,0-2.3-2.3-5.6-2.3c-3.8,0-5.7,2.9-5.7,5.7
			c0,2.8,1.9,5.9,5.9,5.9c3.3,0,6.5-2.9,6.5-2.9l2.9,5.6c0,0-3.5,3.9-10.2,3.9c-8.5,0-13.2-5.9-13.2-12.4
			C501.4,176.4,506.1,170.3,514.6,170.3z"/>
		<path class="st1" d="M537.4,170.3c7.5,0,13.5,5,13.5,12.5c0,7.4-6,12.3-13.4,12.3s-13.4-4.9-13.4-12.3
			C524,175.4,530,170.3,537.4,170.3z M537.4,188.5c2.9,0,5.4-2.2,5.4-5.7c0-3.6-2.5-5.8-5.4-5.8s-5.4,2.3-5.4,5.8
			C532.1,186.3,534.5,188.5,537.4,188.5z"/>
		<path class="st1" d="M552.3,170.9h7.6v2.1c0,0.8-0.1,1.5-0.1,1.5h0.1c1.1-1.8,3.4-4.1,7.5-4.1c4.8,0,8.5,2.2,8.5,8.9v15.4h-8
			v-13.9c0-2.2-0.9-3.1-2.6-3.1c-2.5,0-4,1.4-4.7,3.4c-0.3,0.9-0.5,2-0.5,3.1v10.5h-8V170.9z"/>
		<path class="st1" d="M586.5,170.9h7.6v2.1c0,0.8-0.1,1.5-0.1,1.5h0.1c1.1-1.8,3.4-4.1,7.5-4.1c4.8,0,8.5,2.2,8.5,8.9v15.4h-8
			v-13.9c0-2.2-0.9-3.1-2.6-3.1c-2.5,0-4,1.4-4.7,3.4c-0.3,0.9-0.5,2-0.5,3.1v10.5h-8V170.9z"/>
		<path class="st1" d="M624.6,170.3c7.5,0,13.5,5,13.5,12.5c0,7.4-6,12.3-13.4,12.3s-13.4-4.9-13.4-12.3
			C611.3,175.4,617.2,170.3,624.6,170.3z M624.7,188.5c2.9,0,5.4-2.2,5.4-5.7c0-3.6-2.5-5.8-5.4-5.8s-5.4,2.3-5.4,5.8
			C619.3,186.3,621.8,188.5,624.7,188.5z"/>
		<path class="st1" d="M641.1,186.3c0,0,2.6,2.4,6,2.4c1.2,0,2.3-0.3,2.3-1.1c0-2.1-11.1-2.3-11.1-10c0-4.5,4.3-7.2,9.8-7.2
			c5.5,0,8.3,2.7,8.3,2.7l-2.7,5.7c0,0-2.3-1.9-5.6-1.9c-1.2,0-2.3,0.3-2.3,1.1c0,1.8,11.1,2.1,11.1,9.7c0,4-3.6,7.5-9.7,7.5
			c-5.9,0-9.5-3.5-9.5-3.5L641.1,186.3z"/>
		<path class="st1" d="M670,170.3c7.5,0,13.5,5,13.5,12.5c0,7.4-6,12.3-13.4,12.3s-13.4-4.9-13.4-12.3
			C656.7,175.4,662.6,170.3,670,170.3z M670.1,188.5c2.9,0,5.4-2.2,5.4-5.7c0-3.6-2.5-5.8-5.4-5.8s-5.4,2.3-5.4,5.8
			C664.7,186.3,667.2,188.5,670.1,188.5z"/>
		<path class="st1" d="M686.1,177.5h-3v-6.2h3.3v-6.8h7.7v6.8h5v6.2h-5v7.3c0,2.7,2.7,3,4.2,3c0.6,0,1.1,0,1.1,0v6.9
			c0,0-0.9,0.1-2.2,0.1c-3.8,0-11.1-1-11.1-9V177.5z"/>
		<path class="st1" d="M701.2,170.9h7.6v4c0,0.8-0.1,1.5-0.1,1.5h0.1c1-3.2,4-5.9,7.5-5.9c0.5,0,0.9,0.1,0.9,0.1v7.8
			c0,0-0.6-0.1-1.6-0.1c-1.9,0-5,0.6-6.1,4.1c-0.3,0.9-0.4,1.9-0.4,3.2v9h-8V170.9z"/>
		<path class="st1" d="M729.9,170.3c7.5,0,13.5,5,13.5,12.5c0,7.4-6,12.3-13.4,12.3s-13.4-4.9-13.4-12.3
			C716.5,175.4,722.5,170.3,729.9,170.3z M729.9,188.5c2.9,0,5.4-2.2,5.4-5.7c0-3.6-2.5-5.8-5.4-5.8s-5.4,2.3-5.4,5.8
			C724.5,186.3,727,188.5,729.9,188.5z"/>
		<path class="st1" d="M746.3,186.3c0,0,2.6,2.4,6,2.4c1.2,0,2.3-0.3,2.3-1.1c0-2.1-11.1-2.3-11.1-10c0-4.5,4.3-7.2,9.8-7.2
			c5.5,0,8.3,2.7,8.3,2.7l-2.7,5.7c0,0-2.3-1.9-5.6-1.9c-1.2,0-2.3,0.3-2.3,1.1c0,1.8,11.1,2.1,11.1,9.7c0,4-3.6,7.5-9.7,7.5
			c-5.9,0-9.5-3.5-9.5-3.5L746.3,186.3z"/>
	</g>
	<path class="st2" d="M517,251.9H376.2c-13.2,0-23.8-10.7-23.8-23.8v0c0-13.2,10.7-23.8,23.8-23.8H517c13.2,0,23.8,10.7,23.8,23.8v0
		C540.8,241.2,530.2,251.9,517,251.9z"/>
	<g>
		<path class="st3" d="M416,225.4h0.3V225c0-2-1.5-2.6-3.5-2.6c-3,0-6.4,2.3-6.4,2.3l-2.8-5.6c0,0,4.1-3.1,9.9-3.1
			c6.7,0,10.7,3.6,10.7,9.7v14.6h-7.3v-1.4c0-0.8,0.1-1.5,0.1-1.5h-0.1c0,0-1.7,3.4-6.7,3.4c-4.4,0-8-2.9-8-7.6
			C402.3,226.2,412.4,225.4,416,225.4z M412.5,234.6c2.1,0,3.9-2.3,3.9-4.2V230h-0.7c-2.5,0-5.4,0.7-5.4,2.7
			C410.3,233.8,411,234.6,412.5,234.6z"/>
		<path class="st3" d="M436.3,215.9c4.8,0,6.8,2.5,6.8,2.5h0.1c0,0-0.1-0.5-0.1-1.3v-0.7h7.5v32.9h-8v-9.3c0-1.2,0.1-2,0.1-2h-0.1
			c0,0-2.1,2.7-6.4,2.7c-6.4,0-10.7-5.1-10.7-12.4C425.5,220.8,430,215.9,436.3,215.9z M438.1,234.1c2.4,0,4.6-1.7,4.6-5.8
			c0-2.9-1.5-5.7-4.6-5.7c-2.5,0-4.6,2-4.6,5.7C433.5,231.8,435.4,234.1,438.1,234.1z"/>
		<path class="st3" d="M453.3,216.5h8v13.9c0,2.2,0.9,3.1,2.5,3.1c3.4,0,5-3,5-6.5v-10.5h8v23.7h-7.6v-2.1c0-0.8,0.1-1.5,0.1-1.5
			h-0.1c-1.3,2.5-4.2,4.1-7.4,4.1c-4.7,0-8.4-2.2-8.4-8.9V216.5z"/>
		<path class="st3" d="M479.9,216.5h8v23.7h-8V216.5z M484.2,207.3h7.9l-5.4,6.9h-6.2L484.2,207.3z"/>
	</g>
	<g>
		<defs>
			<polygon id="SVGID_1_" points="325.4,60.9 2,60.9 2,294 328.4,294 328.4,62.1 			"/>
		</defs>
		<clipPath id="SVGID_00000140016120911890769350000012164031918901844130_">
			<use xlink:href="#SVGID_1_"  style="overflow:visible;"/>
		</clipPath>
		
			<radialGradient id="SVGID_00000118390321243700992790000003666995304654257808_" cx="180.3798" cy="186.443" r="145.7408" gradientTransform="matrix(0.9981 -6.100000e-02 6.100000e-02 0.9981 -53.0026 31.5685)" gradientUnits="userSpaceOnUse">
			<stop  offset="0" style="stop-color:#E84A0F"/>
			<stop  offset="3.629544e-02" style="stop-color:#ED6E35"/>
			<stop  offset="7.759976e-02" style="stop-color:#F2905D"/>
			<stop  offset="0.1233" style="stop-color:#F6AD83"/>
			<stop  offset="0.1725" style="stop-color:#FAC5A5"/>
			<stop  offset="0.226" style="stop-color:#FCD8C1"/>
			<stop  offset="0.2854" style="stop-color:#FDE6D8"/>
			<stop  offset="0.3531" style="stop-color:#FEF2EA"/>
			<stop  offset="0.4343" style="stop-color:#FFF9F6"/>
			<stop  offset="0.5422" style="stop-color:#FFFEFD"/>
			<stop  offset="0.7862" style="stop-color:#FFFFFF"/>
		</radialGradient>
		
			<circle style="clip-path:url(#SVGID_00000140016120911890769350000012164031918901844130_);fill:url(#SVGID_00000118390321243700992790000003666995304654257808_);" cx="138.4" cy="206.7" r="145.7"/>
		
			<radialGradient id="SVGID_00000155826304939376665410000001364804634711270327_" cx="271.1322" cy="191.9894" r="145.7408" gradientTransform="matrix(0.9981 -6.100000e-02 6.100000e-02 0.9981 -53.0026 31.5685)" gradientUnits="userSpaceOnUse">
			<stop  offset="0" style="stop-color:#E84A0F"/>
			<stop  offset="4.616624e-02" style="stop-color:#ED6E35"/>
			<stop  offset="9.870356e-02" style="stop-color:#F2905D"/>
			<stop  offset="0.1568" style="stop-color:#F6AD83"/>
			<stop  offset="0.2194" style="stop-color:#FAC5A5"/>
			<stop  offset="0.2875" style="stop-color:#FCD8C1"/>
			<stop  offset="0.363" style="stop-color:#FDE6D8"/>
			<stop  offset="0.4491" style="stop-color:#FEF2EA"/>
			<stop  offset="0.5524" style="stop-color:#FFF9F6"/>
			<stop  offset="0.6897" style="stop-color:#FFFEFD"/>
			<stop  offset="1" style="stop-color:#FFFFFF"/>
		</radialGradient>
		
			<circle style="clip-path:url(#SVGID_00000140016120911890769350000012164031918901844130_);fill:url(#SVGID_00000155826304939376665410000001364804634711270327_);" cx="229.3" cy="206.7" r="145.7"/>
		
			<radialGradient id="SVGID_00000035490150577443135430000017764645848864113844_" cx="250.6871" cy="209.4537" r="145.7408" gradientTransform="matrix(0.9981 -6.100000e-02 6.100000e-02 0.9981 -53.0026 31.5685)" gradientUnits="userSpaceOnUse">
			<stop  offset="0" style="stop-color:#E84A0F"/>
			<stop  offset="4.779485e-03" style="stop-color:#E95118"/>
			<stop  offset="3.087539e-02" style="stop-color:#EE763E"/>
			<stop  offset="6.028543e-02" style="stop-color:#F39766"/>
			<stop  offset="9.189438e-02" style="stop-color:#F7B28A"/>
			<stop  offset="0.1263" style="stop-color:#FAC8AA"/>
			<stop  offset="0.1643" style="stop-color:#FCDAC5"/>
			<stop  offset="0.2072" style="stop-color:#FDE8DB"/>
			<stop  offset="0.2574" style="stop-color:#FEF3EB"/>
			<stop  offset="0.3193" style="stop-color:#FFFAF7"/>
			<stop  offset="0.4063" style="stop-color:#FFFEFD"/>
			<stop  offset="0.6476" style="stop-color:#FFFFFF"/>
		</radialGradient>
		
			<circle style="clip-path:url(#SVGID_00000140016120911890769350000012164031918901844130_);fill:url(#SVGID_00000035490150577443135430000017764645848864113844_);" cx="210" cy="225.3" r="145.7"/>
		<g style="clip-path:url(#SVGID_00000140016120911890769350000012164031918901844130_);">
			<g>
				<g>
					<g>
						<defs>
							<path id="SVGID_00000036939765952411621220000014003169710521771926_" d="M116.9,88.2L240.9,103
								c26.8,3.2,46.1,27.7,42.9,54.5l-5.9,49c-1.9,15.6-11,28.7-23.6,36.3c0,0,0,0,0,0c-8.1,5.6,0.6,37.3-0.1,36.9
								c-0.8-0.4-48.4-32.4-63-34.1l-91.7-11c-26.8-3.2-46.1-27.7-42.9-54.5l5.9-49C65.6,104.3,90.2,85,116.9,88.2z"/>
						</defs>
						<use xlink:href="#SVGID_00000036939765952411621220000014003169710521771926_"  style="overflow:visible;fill:#FDC60D;"/>
						<clipPath id="SVGID_00000067922218582652157510000008308644520497672121_">
							<use xlink:href="#SVGID_00000036939765952411621220000014003169710521771926_"  style="overflow:visible;"/>
						</clipPath>
						<g style="clip-path:url(#SVGID_00000067922218582652157510000008308644520497672121_);">
							
								<image style="overflow:visible;" width="1378" height="716" xlink:href="A0C97F6F921C37F0.png"  transform="matrix(0.24 0 0 0.24 2.9072 50.4135)">
							</image>
							
								<image style="overflow:visible;" width="1492" height="733" xlink:href="A0C97F6F921C37F1.png"  transform="matrix(0.24 0 0 0.24 -17.2528 115.2135)">
							</image>
							
								<image style="overflow:visible;" width="526" height="283" xlink:href="A0C97F6F921C37F7.png"  transform="matrix(0.24 0 0 0.24 178.5872 236.8936)">
							</image>
							
								<image style="overflow:visible;opacity:0.3;" width="191" height="599" xlink:href="A0C97F6F921C37F2.png"  transform="matrix(0.24 0 0 0.24 59.0672 79.2135)">
							</image>
						</g>
					</g>
				</g>
			</g>
			<g>
				
					<radialGradient id="SVGID_00000137092225041834754530000010227492663270771346_" cx="87.9173" cy="823.0963" r="51.2371" gradientTransform="matrix(0.7289 0.6846 -0.6846 0.7289 617.9759 -498.4575)" gradientUnits="userSpaceOnUse">
					<stop  offset="9.883390e-02" style="stop-color:#B11917"/>
					<stop  offset="0.1055" style="stop-color:#B4241B"/>
					<stop  offset="0.1418" style="stop-color:#C14C36"/>
					<stop  offset="0.1827" style="stop-color:#CE735A"/>
					<stop  offset="0.2267" style="stop-color:#DA957E"/>
					<stop  offset="0.2746" style="stop-color:#E4B39F"/>
					<stop  offset="0.3275" style="stop-color:#EDCBBD"/>
					<stop  offset="0.3872" style="stop-color:#F4DED5"/>
					<stop  offset="0.457" style="stop-color:#F9EDE8"/>
					<stop  offset="0.5432" style="stop-color:#FDF8F6"/>
					<stop  offset="0.6642" style="stop-color:#FFFDFD"/>
					<stop  offset="1" style="stop-color:#FFFFFF"/>
				</radialGradient>
				<circle style="fill:url(#SVGID_00000137092225041834754530000010227492663270771346_);" cx="118.6" cy="161.7" r="51.2"/>
				<circle class="st10" cx="118.1" cy="151.9" r="18"/>
			</g>
			<g>
				
					<radialGradient id="SVGID_00000124843213071132834140000015166742714198444717_" cx="131.3772" cy="793.9124" r="51.2371" gradientTransform="matrix(0.7289 0.6846 -0.6846 0.7289 617.9759 -498.4575)" gradientUnits="userSpaceOnUse">
					<stop  offset="9.883390e-02" style="stop-color:#B11917"/>
					<stop  offset="0.1055" style="stop-color:#B4241B"/>
					<stop  offset="0.1418" style="stop-color:#C14C36"/>
					<stop  offset="0.1827" style="stop-color:#CE735A"/>
					<stop  offset="0.2267" style="stop-color:#DA957E"/>
					<stop  offset="0.2746" style="stop-color:#E4B39F"/>
					<stop  offset="0.3275" style="stop-color:#EDCBBD"/>
					<stop  offset="0.3872" style="stop-color:#F4DED5"/>
					<stop  offset="0.457" style="stop-color:#F9EDE8"/>
					<stop  offset="0.5432" style="stop-color:#FDF8F6"/>
					<stop  offset="0.6642" style="stop-color:#FFFDFD"/>
					<stop  offset="1" style="stop-color:#FFFFFF"/>
				</radialGradient>
				<circle style="fill:url(#SVGID_00000124843213071132834140000015166742714198444717_);" cx="170.2" cy="170.2" r="51.2"/>
				
					<ellipse transform="matrix(0.9975 -7.018103e-02 7.018103e-02 0.9975 -10.8367 12.3119)" class="st10" cx="169.8" cy="160.4" rx="18" ry="18"/>
			</g>
			<g>
				
					<radialGradient id="SVGID_00000111178792957565768850000013189631121370055841_" cx="174.837" cy="764.7285" r="51.237" gradientTransform="matrix(0.7289 0.6846 -0.6846 0.7289 617.9759 -498.4575)" gradientUnits="userSpaceOnUse">
					<stop  offset="9.883390e-02" style="stop-color:#B11917"/>
					<stop  offset="0.1055" style="stop-color:#B4241B"/>
					<stop  offset="0.1418" style="stop-color:#C14C36"/>
					<stop  offset="0.1827" style="stop-color:#CE735A"/>
					<stop  offset="0.2267" style="stop-color:#DA957E"/>
					<stop  offset="0.2746" style="stop-color:#E4B39F"/>
					<stop  offset="0.3275" style="stop-color:#EDCBBD"/>
					<stop  offset="0.3872" style="stop-color:#F4DED5"/>
					<stop  offset="0.457" style="stop-color:#F9EDE8"/>
					<stop  offset="0.5432" style="stop-color:#FDF8F6"/>
					<stop  offset="0.6642" style="stop-color:#FFFDFD"/>
					<stop  offset="1" style="stop-color:#FFFFFF"/>
				</radialGradient>
				<circle style="fill:url(#SVGID_00000111178792957565768850000013189631121370055841_);" cx="221.9" cy="178.6" r="51.2"/>
				<circle class="st10" cx="221.5" cy="168.9" r="18"/>
			</g>
		</g>
	</g>
	<g>
		
			<linearGradient id="SVGID_00000072962274885895483440000011699401888772716200_" gradientUnits="userSpaceOnUse" x1="1139.1396" y1="597.3354" x2="1251.2621" y2="597.3354" gradientTransform="matrix(0.7819 -0.6234 0.6234 0.7819 -358.0549 362.878)">
			<stop  offset="0" style="stop-color:#ABCD6C"/>
			<stop  offset="1" style="stop-color:#CFDD80"/>
		</linearGradient>
		<path style="fill:url(#SVGID_00000072962274885895483440000011699401888772716200_);" d="M864.5,35.2c5.3,38.9,29.5,56,64.5,65.8
			c39.8,11.2,38.6,51.6,29,85.4l68.8-46.8c2-57.3-18.9-78.4-46.7-85.1c-26.4-6.3-51-18-54.7-54.5C905.2,11.7,884.9,23.4,864.5,35.2z
			"/>
		
			<linearGradient id="SVGID_00000158727040674986192710000017902053770603770266_" gradientUnits="userSpaceOnUse" x1="1149.6593" y1="597.4436" x2="1247.4232" y2="597.4436" gradientTransform="matrix(0.7819 -0.6234 0.6234 0.7819 -358.0549 362.878)">
			<stop  offset="0" style="stop-color:#528E32"/>
			<stop  offset="1" style="stop-color:#78A841"/>
		</linearGradient>
		<path style="fill:url(#SVGID_00000158727040674986192710000017902053770603770266_);" d="M964.4,177.3c4.1-18.4,5.6-40.7-3.9-57.6
			c-6.2-11.1-16.4-18.7-30.4-22.6c-37.7-10.6-56.2-28.6-61.3-60l53.7-30.9c6.2,35.3,33.4,46.4,56.8,52c19.6,4.7,45.3,18,43.8,79.2
			L964.4,177.3z"/>
		
			<linearGradient id="SVGID_00000109747693486926447460000010662099793357398705_" gradientUnits="userSpaceOnUse" x1="1155.3253" y1="597.8547" x2="1244.7339" y2="597.8547" gradientTransform="matrix(0.7819 -0.6234 0.6234 0.7819 -358.0549 362.878)">
			<stop  offset="0" style="stop-color:#ABCD6C"/>
			<stop  offset="1" style="stop-color:#CFDD80"/>
		</linearGradient>
		<path style="fill:url(#SVGID_00000109747693486926447460000010662099793357398705_);" d="M924.5,22.4c-0.8,0.2-1.5,0.4-2.4,0.5
			c-4.7,0.3-8.8-2.9-10.2-7.5L879.6,34c0.5,1.2,0.8,2.4,0.9,3.8c0.3,4.8-2.5,8.9-6.5,10.5c7.4,23.3,24.9,37.5,56.7,46.4
			c14.6,4.1,25.4,12.1,32,23.8c6,10.7,8.3,24.3,7,40.5c3.8-0.1,7.2,2.1,8.9,5.4l34.1-23.2c-0.4-1-0.6-2.1-0.7-3.2
			c-0.3-5.5,3.3-10.1,8.3-11.1c-1.5-50.4-24.2-62-41.7-66.2C958.5,55.9,935.2,47.1,924.5,22.4z"/>
		<g>
			<path class="st16" d="M987.8,94c-10.7,7.6-32,6.7-48.8-1.1c-16.8-7.8-18.7-21.4-6.3-28.6c12.1-7,33.4-6.2,48.7,1.1
				C996.6,72.8,998.7,86.2,987.8,94z"/>
			<path class="st16" d="M933.1,96.8c-21.9-9.9-23-28.2-7.2-37.1c15.3-8.6,42-6.9,61.4,2.1c19.3,9.1,21,27,7.4,37
				C981.4,108.5,955,106.7,933.1,96.8z M985.5,62.9c-18.2-8.6-43.3-9.9-57.7-1.8c-14.7,8.4-13.3,25.2,7.1,34.5
				c20.4,9.2,45.4,10.8,57.8,1.7C1005.5,88,1003.6,71.4,985.5,62.9z"/>
			<path class="st16" d="M988.6,123.5c-0.8-4.3,1-8.1,4.6-8.7c3.6-0.6,7.7,2.3,8.5,6.5c0.7,4.2-2.1,8.2-5.7,8.9
				C992.4,130.8,989.4,127.8,988.6,123.5z M999,121.7c-0.4-2.5-2.7-4.2-4.8-3.8c-2.1,0.3-3.3,2.6-2.8,5.1c0.5,2.5,2.4,4.2,4.5,3.9
				C997.9,126.5,999.4,124.2,999,121.7z"/>
			<path class="st16" d="M900.9,48.9c-1.7-4,0.5-8.2,4.3-8.9c3.8-0.8,7.8,2,9.6,5.9c1.8,3.9,0.6,7.6-3.3,8.5
				C907.6,55.2,902.6,52.9,900.9,48.9z M911.9,46.4c-1-2.3-3.5-3.8-5.7-3.4c-2.2,0.5-3.4,2.8-2.4,5.2c1,2.3,3.8,3.7,6.1,3.2
				C912.1,50.9,912.9,48.7,911.9,46.4z"/>
			<path class="st17" d="M965.9,89c11.1-6.5-9.9-13.4-4.1-16.7c6.7-3.8,14.1,4,14.1,4c2-0.3,4-0.7,5.9-1c-0.4-1.4-2.3-3.2-5.1-4.8
				c0.9-0.6,1.8-1.1,2.6-1.7c-1.4-0.5-2.8-1-4.3-1.5c-0.7,0.5-1.4,0.9-2.1,1.4c-4.8-1.8-10.7-2.5-15.8,0.1
				c-10,5.1,6.9,13.9,2.7,16.5c-6.4,3.8-16.3-4.7-16.3-4.7c-2,0.3-4.1,0.6-6.1,0.9c0.4,0.6,3.6,3.2,8,5.5c-1,0.6-2,1.2-3,1.7
				c1.1,0.5,2.2,1,3.3,1.4c0.9-0.6,1.8-1.2,2.8-1.7C954.1,90.7,960.6,92.1,965.9,89z"/>
		</g>
	</g>
</g>
</svg>
