<?xml version="1.0" encoding="utf-8"?>
<!-- Generator: Adobe Illustrator 26.0.1, SVG Export Plug-In . SVG Version: 6.00 Build 0)  -->
<svg version="1.1" id="Capa_1" xmlns="http://www.w3.org/2000/svg" xmlns:xlink="http://www.w3.org/1999/xlink" x="0px" y="0px"
	 viewBox="0 0 143.2 167.1" style="enable-background:new 0 0 143.2 167.1;" xml:space="preserve">
<style type="text/css">
	.st0{fill:#9DC865;}
	.st1{fill:#579337;}
	.st2{fill:#649B3C;}
	.st3{fill:url(#SVGID_1_);}
	.st4{fill:url(#SVGID_00000170990652496961301940000009309069770658022547_);}
</style>
<g>
	<path class="st0" d="M45.8,27.4c0,0,40.9,13.1,35.7,39.7c-5.2,26.6-18.8,33.7-18.8,33.7s41.6-5.2,65-28.2
		c23.5-23,20.5-54.1-10.7-72.6C117.3,0.4,45.8,27.4,45.8,27.4z"/>
	<path class="st1" d="M56.5,28.1c0,0,32.7,12.1,27.5,38.7c-5.2,26.6-17,34.5-17,34.5s34.2-6.6,57.7-29.6c23.5-23,22.4-47.2-8.7-65.7
		C116.2,6.5,56.5,28.1,56.5,28.1z"/>
	<path class="st0" d="M122.6,70.5c-21.9,21.4-55,34.3-55,34.3s15.3-15.3,20.1-40.1c2.5-12.8-3.9-22-10.6-28c0.4-0.6,0.8-1.3,1.1-2
		c1.2-3.3-0.2-7.1-3.2-10.2c8.8-3.3,21.2-8,29.8-11.3c2,2.3,4.9,4.3,8.4,5.6c5.1,1.8,10.2,1.5,13.7-0.3
		C143.1,34.2,140.7,52.7,122.6,70.5z"/>
	<path class="st1" d="M104.3,61.4c4.9,3,1.7,17.8-9.7,30c-9.1,4.7-17.6,7.6-22.8,9.2c1.9-6.2,6.6-14.8,11.8-23.3
		C91.1,66.7,99.2,58,104.3,61.4z"/>
	<path class="st1" d="M98.7,89.2c4.9-5.8,8.6-12.1,10.3-17.8c2.3-7.9,0.8-13.4-2.3-15.4c-6.7-3.7-15.6,7.3-24.1,19.6
		c-0.5,0.9-1,1.8-1.5,2.7c0.3-1,0.7-2.1,1-3.2c0-0.1,0.1-0.1,0.1-0.2c8.7-12.7,17.6-24.3,24.9-21.4c0.2,0.1,0.3,0.2,0.5,0.3
		c3.4,2,5.3,8,2.9,16.6c-1.6,5.7-5.3,11.9-10,17.8C99.9,88.5,99.3,88.9,98.7,89.2z"/>
	<path class="st2" d="M98.3,30.2c2.5-0.6,6.9,2.8,9,7.7c2,4.7,1.1,8.7-1.2,9c-0.1,0-0.1,0-0.2,0c-1.2,0.1-2.5-0.7-3.8-2.1
		c-1.4-1.4-2.7-3.4-3.7-5.5c-2.1-4.3-2.6-8.3-0.3-9C98.2,30.2,98.2,30.2,98.3,30.2z M105.5,38.1c-1.2-2.8-3.6-4.8-5.1-4.5
		c0,0-0.1,0-0.1,0c-1.4,0.4-1.2,2.7,0,5.3c0.6,1.3,1.4,2.4,2.2,3.3c0.8,0.8,1.7,1.3,2.4,1.2C106.3,43.1,106.6,40.8,105.5,38.1z"/>
	<path class="st0" d="M93.5,74.1c3.9,3.3-8.3,16.6-7.4,18.2c1.3,2.3,8.6-8.1,8.4-8.2c1-0.3,1.6-0.5,2.6-0.8
		c-0.8,1.6-2.6,4.2-4.7,6.7c0.2,0.4,0.3,0.6,0.5,1c-1.2,1.2-1.8,1.8-3,2.9c-0.1-0.3-0.2-0.5-0.3-0.9c-3.3,3.4-6.5,5.6-7.3,4.1
		c-1.4-2.7,9.1-15.8,7.7-17.4c-1.6-1.9-7.9,8.7-8.1,8.6c-0.8,0.1-1.2,0.2-2,0.3c0.4-0.6,2.4-3.7,4.7-7c-0.3-0.4-0.4-0.6-0.7-1
		c0.6-0.8,0.9-1.3,1.6-2.1c0.3,0.4,0.4,0.6,0.7,1C89,75.9,91.8,72.6,93.5,74.1z"/>
	
		<linearGradient id="SVGID_1_" gradientUnits="userSpaceOnUse" x1="966.3373" y1="1137.0406" x2="1036.9598" y2="1137.0406" gradientTransform="matrix(0.9425 0.3343 0.3343 -0.9425 -1282.1504 865.4446)">
		<stop  offset="0" style="stop-color:#ABCD6C"/>
		<stop  offset="1" style="stop-color:#CFDD80"/>
	</linearGradient>
	<path class="st3" d="M2.3,167.1c0,0-12-37.5,18.5-54.4c25.7-14.3,58.4-16.6,71-18.9c-18,7.5-30.1,19.9-30.7,33
		c-0.5,10.7,5.8,18.8,5.8,18.8L2.3,167.1z"/>
	<path class="st1" d="M59,127.4c-0.5,9.9,3,15.6,3,15.6L5.3,162.4c0,0-11.7-32.4,16.5-48.1C41.6,103.3,69,99.6,84.2,97.4
		c-8.1,4.4-14.4,9.9-18.4,16C61.8,117.9,59.2,122.6,59,127.4z"/>
	
		<linearGradient id="SVGID_00000137109056898542946300000012606231295574627988_" gradientUnits="userSpaceOnUse" x1="971.1288" y1="1140.3911" x2="1027.3138" y2="1140.3911" gradientTransform="matrix(0.9425 0.3343 0.3343 -0.9425 -1282.1504 865.4446)">
		<stop  offset="0" style="stop-color:#ABCD6C"/>
		<stop  offset="1" style="stop-color:#CFDD80"/>
	</linearGradient>
	<path style="fill:url(#SVGID_00000137109056898542946300000012606231295574627988_);" d="M57.1,127.5c0,0.9,0,1.7,0,2.5
		c-3.1,1.9-5.7,4.9-7.1,8.8c-0.8,2.1-1.1,4.3-1,6.4l-29.3,9.8c-0.9-5-4-9.2-8.7-10.9c-1.8-0.6-3.7-0.9-5.6-0.7
		c1-9.3,5.1-20.5,18-27.7c16.3-9.1,40.9-13.1,55.6-15.2c-4.9,3.2-8.9,6.9-11.9,10.8C61.9,115.8,57.3,124,57.1,127.5z"/>
	<path class="st2" d="M44,119.4c-0.7-0.6-2-0.7-3.6,0c-1.6,0.7-3.4,2-5,3.7c-3.1,3.5-4.1,7.5-2.6,8.5c0,0,0.1,0,0.1,0.1
		c0.8,0.5,2.1,0.3,3.5-0.6c1.5-0.8,3.1-2.1,4.5-3.7c2.8-3.1,4.3-6.5,3.1-7.9C44.1,119.4,44.1,119.4,44,119.4z M36.6,124
		c0.9-1,1.9-1.7,2.8-2.2c0.9-0.4,1.7-0.4,2.1-0.1c0,0,0,0,0.1,0.1c0.8,0.8,0,2.8-1.7,4.7c-0.8,0.9-1.8,1.7-2.7,2.2
		c-0.9,0.5-1.6,0.6-2.2,0.2C34.2,128.2,34.9,126,36.6,124z"/>
</g>
</svg>
