<?xml version="1.0" encoding="utf-8"?>
<!-- Generator: Adobe Illustrator 26.0.1, SVG Export Plug-In . SVG Version: 6.00 Build 0)  -->
<svg version="1.1" id="Capa_1" xmlns="http://www.w3.org/2000/svg" xmlns:xlink="http://www.w3.org/1999/xlink" x="0px" y="0px"
	 viewBox="0 0 347 186.2" style="enable-background:new 0 0 347 186.2;" xml:space="preserve">
<style type="text/css">
	.st0{fill:url(#SVGID_1_);}
	.st1{fill:url(#SVGID_00000052097598520874951730000014191348666343274127_);}
	.st2{fill:url(#SVGID_00000060735632461540526590000017332843337567597443_);}
	.st3{fill:url(#SVGID_00000042733061024475772380000006063383760053649294_);}
	.st4{fill:url(#SVGID_00000153682351452011506050000011365951286035153305_);}
	.st5{fill:#649B3C;}
	.st6{fill:#CDDC82;}
</style>
<g>
	
		<linearGradient id="SVGID_1_" gradientUnits="userSpaceOnUse" x1="392.6857" y1="418.7209" x2="729.0089" y2="418.7209" gradientTransform="matrix(0.9514 -0.3078 0.8565 0.7739 -687.7123 -63.0411)">
		<stop  offset="0" style="stop-color:#ABCD6C"/>
		<stop  offset="1" style="stop-color:#CFDD80"/>
	</linearGradient>
	<path class="st0" d="M0,85c28,39.2,61.1,73.6,98.6,101.2C203,173.6,290.1,108.5,347,20.8c-30.2-1.5-58.2-8.9-83.3-20.8
		C201.1,69.6,106.7,110.8,0,85z"/>
	
		<linearGradient id="SVGID_00000051380567914144903840000002946597046527504014_" gradientUnits="userSpaceOnUse" x1="557.7051" y1="479.5307" x2="557.7051" y2="358.7673" gradientTransform="matrix(0.9514 -0.3078 0.8565 0.7739 -687.7123 -63.0411)">
		<stop  offset="0" style="stop-color:#528E32"/>
		<stop  offset="1" style="stop-color:#78A841"/>
	</linearGradient>
	<path style="fill:url(#SVGID_00000051380567914144903840000002946597046527504014_);" d="M12.8,93.6c25.6,33.3,55,62.7,87.8,86.8
		c98.4-12.5,181.2-72.1,237-153.1c-26.6-2.8-51.4-10.2-73.9-21.1C203.1,72.5,114,112.6,12.8,93.6z"/>
	
		<linearGradient id="SVGID_00000034784380891879420100000003510154380811831962_" gradientUnits="userSpaceOnUse" x1="551.3726" y1="477.8919" x2="551.3726" y2="373.6753" gradientTransform="matrix(0.9514 -0.3078 0.8565 0.7739 -687.7123 -63.0411)">
		<stop  offset="0" style="stop-color:#ABCD6C"/>
		<stop  offset="1" style="stop-color:#CFDD80"/>
	</linearGradient>
	<path style="fill:url(#SVGID_00000034784380891879420100000003510154380811831962_);" d="M246.2,28.3
		c-52.3,48.2-121.4,77.9-199.3,73.2c6.5,9.1,3.4,16.5-7.7,17.7c15,16,31.1,30.8,48.1,44.1c0.2,0,0.5-0.1,0.7-0.1
		c15.3-1.4,34.7,2.4,46.1,9.2c72.9-18.1,135.6-62.3,182.9-120.9c-5.5-3.2-4.9-11.2,1.1-20.7c-14.3-3.2-28-7.8-40.9-13.5
		C268.1,26.5,254.8,30.9,246.2,28.3z"/>
	
		<linearGradient id="SVGID_00000131349469101614133440000014999641155255365564_" gradientUnits="userSpaceOnUse" x1="535.7419" y1="463.345" x2="535.7419" y2="406.7911" gradientTransform="matrix(0.9514 -0.3078 0.8565 0.7739 -687.7123 -63.0411)">
		<stop  offset="0" style="stop-color:#528E32"/>
		<stop  offset="1" style="stop-color:#78A841"/>
	</linearGradient>
	<path style="fill:url(#SVGID_00000131349469101614133440000014999641155255365564_);" d="M233.6,83.7c17,7,14.9,26.6-8.9,42.4
		c-23.8,15.9-60.1,16-76.7,2.6c-16.7-13.4-8.2-29.7,15.2-39.1C186.6,80.1,216.5,76.6,233.6,83.7z"/>
	
		<linearGradient id="SVGID_00000017475222371563379670000013063204682947647405_" gradientUnits="userSpaceOnUse" x1="536.8725" y1="471.3896" x2="536.8725" y2="398.4738" gradientTransform="matrix(0.9514 -0.3078 0.8565 0.7739 -687.7123 -63.0411)">
		<stop  offset="0" style="stop-color:#528E32"/>
		<stop  offset="1" style="stop-color:#78A841"/>
	</linearGradient>
	<path style="fill:url(#SVGID_00000017475222371563379670000013063204682947647405_);" d="M179.9,146.6c-18,0-34-4.9-43.9-13.4
		c-8.4-7.1-12.1-15.1-10.7-23c1.9-10.7,13.1-20.6,30.8-27.2c19.9-7.4,42-11.7,60.6-11.7c10.5,0,19.4,1.3,26.5,4
		c8.6,3.1,13.9,9.1,14.9,16.9c1.6,12.2-7.6,26.6-24.7,38.5C219,140.8,199.5,146.6,179.9,146.6z M216.6,74.2
		c-18.2,0-39.9,4.2-59.6,11.5c-16.7,6.3-27.2,15.4-28.9,25c-1.2,6.8,2.2,13.8,9.7,20.2c9.4,8.1,24.7,12.7,42,12.7
		c19,0,37.9-5.6,51.8-15.4c16.1-11.3,24.9-24.6,23.5-35.7c-0.9-6.6-5.5-11.8-13-14.5C235.3,75.5,226.7,74.2,216.6,74.2z"/>
	<path class="st5" d="M260.8,66.4c-1.1,0-2.2-0.2-3.1-0.5c-2.1-0.7-3.5-2.2-3.9-4.1c-0.6-2.7,0.9-5.9,3.9-8.7
		c4.6-4.3,11.8-6.9,16.3-5.7c2.1,0.6,3.6,1.9,4.1,3.8c0.7,2.7-0.6,6-3.6,9C270.8,64,265.3,66.4,260.8,66.4z M271.4,51.3
		c-3.4,0-7.9,2-10.9,4.9c-2.2,2-2.9,3.9-2.7,4.9c0,0.2,0.2,0.7,1.2,1.1c0.5,0.2,1.1,0.3,1.8,0.3c3.4,0,7.8-2,10.7-4.9
		c2.1-2.2,2.8-4.1,2.6-5.1c-0.1-0.2-0.2-0.7-1.2-0.9C272.5,51.3,272,51.3,271.4,51.3z"/>
	<path class="st5" d="M112.1,146.7c-5.8,0-12-2.2-15.2-5.4c-2.9-2.8-2.7-5.4-2.3-6.6c0.8-2.5,3.5-4.2,7.4-4.8
		c6.5-1,14.8,1.1,18.8,4.7c3,2.6,2.9,5.2,2.5,6.4c-0.7,2.6-3.3,4.5-7.2,5.3C114.9,146.6,113.5,146.7,112.1,146.7z M105.4,133.7
		c-1,0-1.9,0.1-2.8,0.2c-2.5,0.4-3.9,1.3-4.1,2c-0.2,0.6,0.3,1.5,1.2,2.4c3.1,3,10.6,4.9,15.6,3.9c2.7-0.6,3.9-1.6,4.1-2.3
		c0.2-0.6-0.3-1.5-1.3-2.3C115.5,135.3,110.3,133.7,105.4,133.7z"/>
	<path class="st6" d="M218.9,104.3c-14-8-36.5,8.7-43.8,3c-7.9-6.2,13.9-10.8,13.8-11c-0.4-1.7-0.8-3.4-1.2-5.1
		c-3.6,0.2-8.7,1.6-13.4,3.5c-1.2-0.9-2.4-1.7-3.5-2.6c-1.7,1-3.4,2.1-5.1,3.1c1,0.7,2,1.4,3,2.1c-6,3.4-9.6,7.9-4.2,12.8
		c11,10,38.1-3.2,43.6-0.2c8.7,5.2-15.5,13.7-15.7,13.4c0.4,1.7,0.8,3.4,1.2,5c1.5-0.3,9.2-2.8,16.1-6.6c1.4,0.8,2.7,1.6,4.1,2.3
		c1.5-1,2.9-1.9,4.4-2.9c-1.4-0.7-2.7-1.4-4.1-2C221.4,114.1,225.8,108.3,218.9,104.3z"/>
</g>
</svg>
