<svg xmlns="http://www.w3.org/2000/svg" width="55" height="49.519" viewBox="0 0 55 49.519"><defs><style>.a{fill:#fd4940;}</style></defs><g transform="translate(-211.074 -399.375)"><g transform="translate(211.074 399.375)"><g transform="translate(0 0)"><path class="a" d="M249.889,448.861c-2.409,0-22.583-.06-30.26-.1a9.381,9.381,0,0,1-7.462-5.291,10.156,10.156,0,0,1,.208-9.5q8.053-13.884,16.1-27.774a16,16,0,0,1,4.367-5.09,8.909,8.909,0,0,1,7.1-1.557,11.018,11.018,0,0,1,4.942,2.409,10.56,10.56,0,0,1,2.025,2.183c2.216,3.088,15.835,26.432,17.13,28.629a11.309,11.309,0,0,1,1.244,10.449c-2.038,5.01-7.834,5.683-8.354,5.679C254.58,448.878,249.889,448.867,249.889,448.861Zm8.135-3.555c2.123,0,3.633-1.665,4.416-3.707a6.42,6.42,0,0,0-.362-5.816c-.927-1.63-16.389-27.176-18.2-30.115-.385-.627-2.635-3.652-5.824-3.652s-5.04,2.77-5.826,4.007c-3.011,4.738-17.29,28.483-17.805,29.745a8.521,8.521,0,0,0-.109,6.134,6.1,6.1,0,0,0,4.015,3.236C219.123,445.273,255.971,445.306,258.024,445.306Z" transform="translate(-211.074 -399.375)"/><path class="a" d="M243.807,415.481l-.75,17.745-3.7-.015-.663-17.732Z" transform="translate(-213.772 -400.948)"/></g><path class="a" d="M243.789,440.084a2.457,2.457,0,1,1-2.453-2.461A2.457,2.457,0,0,1,243.789,440.084Z" transform="translate(-213.79 -403.112)"/></g></g></svg>