<?xml version="1.0" encoding="utf-8"?>
<!-- Generator: Adobe Illustrator 26.0.1, SVG Export Plug-In . SVG Version: 6.00 Build 0)  -->
<svg version="1.1" id="Capa_1" xmlns="http://www.w3.org/2000/svg" xmlns:xlink="http://www.w3.org/1999/xlink" x="0px" y="0px"
	 viewBox="0 0 639.9 318.2" style="enable-background:new 0 0 639.9 318.2;" xml:space="preserve">
<style type="text/css">
	.st0{fill:#E62833;}
	.st1{fill:url(#SVGID_1_);}
	.st2{fill:#FFE00A;}
	.st3{fill:#068298;}
	.st4{fill:#FFFFFF;}
</style>
<rect class="st0" width="639.9" height="318.2"/>
<linearGradient id="SVGID_1_" gradientUnits="userSpaceOnUse" x1="145.7031" y1="240.3999" x2="500.6189" y2="240.3999">
	<stop  offset="0" style="stop-color:#E83962"/>
	<stop  offset="1" style="stop-color:#BA1256"/>
</linearGradient>
<polygon class="st1" points="500.6,273.4 145.7,273.1 159.5,240.3 145.8,207.4 500.6,207.7 483.7,241.7 "/>
<polygon class="st2" points="498.2,276.3 143.3,276 157.1,243.2 143.4,210.4 498.2,210.6 481.3,244.6 "/>
<g>
	<g>
		<path class="st3" d="M206.9,246.2h5.9l0.6,19.7h-7.2L206.9,246.2z M206.7,237.4h6.3v6h-6.3V237.4z"/>
		<path class="st3" d="M217.2,229.4h17.9v6h-10.9v5.2h8.7v6h-8.7v5.4h11.5v6h-18.5V229.4z"/>
		<path class="st3" d="M238.9,250.8c0,0,2.3,2.1,5.2,2.1c1,0,2-0.3,2-1c0-1.8-9.6-2-9.6-8.7c0-3.9,3.7-6.3,8.5-6.3
			c4.8,0,7.2,2.4,7.2,2.4l-2.4,4.9c0,0-2-1.7-4.9-1.7c-1,0-2,0.3-2,1c0,1.6,9.6,1.8,9.6,8.4c0,3.5-3.1,6.5-8.4,6.5
			c-5.2,0-8.2-3-8.2-3L238.9,250.8z"/>
		<path class="st3" d="M260.7,237.4h6.6v1.8c0,0.7-0.1,1.3-0.1,1.3h0.1c1-1.4,2.9-3.6,6.1-3.6c2.6,0,4.7,1.2,5.8,3.5h0.1
			c1.1-1.7,3.5-3.5,6.6-3.5c3.8,0,6.7,2,6.7,7.7V258h-6.9v-12.2c0-1.5-0.3-2.6-1.6-2.6c-2.2,0-3.4,1.6-3.8,3.9
			c-0.2,0.7-0.2,1.6-0.2,2.4v8.5h-6.9v-12.2c0-1.5-0.3-2.6-1.6-2.6c-2.2,0-3.3,1.5-3.8,3.7c-0.2,0.8-0.2,1.7-0.2,2.6v8.5h-6.9V237.4
			z"/>
		<path class="st3" d="M294.8,237.4h6.9v12.1c0,1.9,0.8,2.7,2.2,2.7c3,0,4.4-2.6,4.4-5.7v-9.1h6.9V258h-6.6v-1.8
			c0-0.7,0.1-1.3,0.1-1.3h-0.1c-1.1,2.2-3.7,3.6-6.4,3.6c-4.1,0-7.3-1.9-7.3-7.7V237.4z"/>
		<path class="st3" d="M317.6,259.8c0,0,1.1,0.8,2.1,0.8c1.1,0,2.6-0.3,3.3-2.1l0.4-1l-8.8-20.2h7.8l3,9.5c0.4,1.1,0.8,3.2,0.8,3.2
			h0.1c0,0,0.4-2,0.7-3.1l2.6-9.6h7.6l-8.4,22.8c-1.7,4.6-5.3,6.2-8.6,6.2c-2.7,0-4.8-1.4-4.8-1.4L317.6,259.8z"/>
		<path class="st3" d="M345.4,243.1h-2.5v-5.4h2.5v-0.8c0-6.8,6.1-7.7,9.4-7.7c1.2,0,2.1,0.1,2.1,0.1v5.8c0,0-0.5-0.1-1.1-0.1
			c-1.4,0-3.5,0.2-3.5,2v0.6h3.8v5.4h-3.8V258h-6.9V243.1z"/>
		<path class="st3" d="M367.5,245.1h0.3v-0.4c0-1.7-1.3-2.3-3-2.3c-2.6,0-5.6,2-5.6,2l-2.4-4.9c0,0,3.6-2.7,8.6-2.7
			c5.8,0,9.3,3.2,9.3,8.4V258h-6.3v-1.2c0-0.7,0.1-1.3,0.1-1.3h-0.1c0,0-1.5,3-5.8,3c-3.8,0-7-2.6-7-6.6
			C355.5,245.8,364.3,245.1,367.5,245.1z M364.4,253.2c1.8,0,3.4-2,3.4-3.6v-0.4h-0.6c-2.2,0-4.7,0.6-4.7,2.4
			C362.5,252.4,363.1,253.2,364.4,253.2z M366,229.4h6.8l-4.7,6h-5.4L366,229.4z"/>
		<path class="st3" d="M387,236.9c5.6,0,8.2,3.1,8.2,3.1l-2.9,4.6c0,0-2-2-4.8-2c-3.3,0-4.9,2.5-4.9,4.9c0,2.4,1.7,5.1,5.2,5.1
			c2.9,0,5.6-2.5,5.6-2.5l2.5,4.8c0,0-3.1,3.4-8.8,3.4c-7.4,0-11.5-5.1-11.5-10.8C375.5,242.1,379.6,236.9,387,236.9z"/>
		<path class="st3" d="M396.7,237.4h6.9V258h-6.9V237.4z M396.8,229.4h6.8v5.4h-6.8V229.4z"/>
		<path class="st3" d="M406.1,229.4h6.9v20.1c0,2,0.4,2.6,1.9,2.6c0.4,0,0.8,0,0.8,0v6c0,0-1,0.1-2.1,0.1c-3.7,0-7.6-0.9-7.6-7.8
			V229.4z"/>
		<path class="st3" d="M418,229.4h7.2l-0.6,19.8h-5.9L418,229.4z M418.5,252h6.3v6h-6.3V252z"/>
	</g>
</g>
<g>
	<g>
		<path class="st4" d="M94.9,60.3c8.6,0,15,6.4,15,14.6c0,3.3-1.2,6.1-2.8,8.5l3,2.4l-4,4.4l-2.9-2.8c-2.3,1.5-5.1,2.4-8.2,2.4
			c-8.6,0-15-6.6-15-15C80,66.7,86.3,60.3,94.9,60.3z M94.9,83.5c1,0,2.2-0.2,3.1-0.6l-2.9-2.6l3.9-4.4l2.8,2.8
			c0.5-1.1,0.8-2.4,0.8-3.7c0-4.7-3.4-8.2-7.7-8.2s-7.7,3.5-7.7,8.2C87.2,79.8,90.7,83.5,94.9,83.5z"/>
		<path class="st4" d="M111.6,68.8h6.9v12.1c0,1.9,0.8,2.7,2.2,2.7c3,0,4.4-2.6,4.4-5.7v-9.1h6.9v20.6h-6.6v-1.8
			c0-0.7,0.1-1.3,0.1-1.3h-0.1c-1.1,2.2-3.7,3.6-6.4,3.6c-4.1,0-7.3-1.9-7.3-7.7V68.8z"/>
		<path class="st4" d="M143.9,68.3c6.1,0,9.5,4.2,9.5,10c0,0.7-0.2,2.2-0.2,2.2h-13c0.5,2.5,2.6,3.7,4.8,3.7c3,0,5.7-2.1,5.7-2.1
			l2.6,4.8c0,0-3.3,3-8.8,3c-7.4,0-11.3-5.3-11.3-10.8C133.2,73,137.3,68.3,143.9,68.3z M146.5,76.5c0-1.6-1.1-3-2.7-3
			c-2,0-3,1.4-3.3,3H146.5z"/>
		<path class="st4" d="M154.8,68.8h6.6v3.5c0,0.7-0.1,1.3-0.1,1.3h0.1c0.9-2.8,3.5-5.1,6.6-5.1c0.4,0,0.8,0.1,0.8,0.1v6.8
			c0,0-0.6-0.1-1.4-0.1c-1.6,0-4.3,0.5-5.3,3.6c-0.2,0.8-0.4,1.7-0.4,2.8v7.8h-6.9V68.8z"/>
		<path class="st4" d="M178.9,68.3c6.1,0,9.5,4.2,9.5,10c0,0.7-0.2,2.2-0.2,2.2h-13c0.5,2.5,2.6,3.7,4.8,3.7c3,0,5.7-2.1,5.7-2.1
			l2.6,4.8c0,0-3.3,3-8.8,3c-7.4,0-11.3-5.3-11.3-10.8C168.1,73,172.2,68.3,178.9,68.3z M181.4,76.5c0-1.6-1.1-3-2.7-3
			c-2,0-3,1.4-3.3,3H181.4z"/>
		<path class="st4" d="M189.7,68.8h6.6v1.8c0,0.7-0.1,1.3-0.1,1.3h0.1c1-1.4,2.9-3.6,6.1-3.6c2.6,0,4.7,1.2,5.8,3.5h0.1
			c1.1-1.7,3.5-3.5,6.6-3.5c3.8,0,6.7,2,6.7,7.7v13.4h-6.9V77.2c0-1.5-0.3-2.6-1.6-2.6c-2.2,0-3.4,1.6-3.8,3.9
			c-0.2,0.7-0.2,1.6-0.2,2.4v8.5h-6.9V77.2c0-1.5-0.3-2.6-1.6-2.6c-2.2,0-3.3,1.5-3.8,3.7c-0.2,0.8-0.2,1.7-0.2,2.6v8.5h-6.9V68.8z"
			/>
		<path class="st4" d="M234.2,68.3c6.5,0,11.7,4.4,11.7,10.8c0,6.4-5.2,10.7-11.7,10.7c-6.5,0-11.7-4.3-11.7-10.7
			C222.5,72.7,227.7,68.3,234.2,68.3z M234.2,84.1c2.5,0,4.7-1.9,4.7-5c0-3.1-2.2-5.1-4.7-5.1c-2.5,0-4.7,2-4.7,5.1
			C229.5,82.2,231.7,84.1,234.2,84.1z"/>
		<path class="st4" d="M248.5,82.2c0,0,2.3,2.1,5.2,2.1c1,0,2-0.3,2-1c0-1.8-9.6-2-9.6-8.7c0-3.9,3.7-6.3,8.5-6.3
			c4.8,0,7.2,2.4,7.2,2.4l-2.4,4.9c0,0-2-1.7-4.9-1.7c-1,0-2,0.3-2,1c0,1.6,9.6,1.8,9.6,8.4c0,3.5-3.1,6.5-8.4,6.5
			c-5.2,0-8.2-3-8.2-3L248.5,82.2z"/>
		<path class="st4" d="M279.5,68.3c4.2,0,5.9,2.2,5.9,2.2h0.1c0,0-0.1-0.4-0.1-1.1v-0.6h6.5v28.6h-6.9v-8.1c0-1,0.1-1.8,0.1-1.8
			h-0.1c0,0-1.8,2.3-5.6,2.3c-5.6,0-9.3-4.4-9.3-10.8C270.1,72.6,274,68.3,279.5,68.3z M281.1,84.2c2.1,0,4-1.5,4-5.1
			c0-2.5-1.3-4.9-4-4.9c-2.2,0-4,1.8-4,4.9C277,82.2,278.7,84.2,281.1,84.2z"/>
		<path class="st4" d="M294.3,68.8h6.9v12.1c0,1.9,0.8,2.7,2.2,2.7c3,0,4.4-2.6,4.4-5.7v-9.1h6.9v20.6H308v-1.8
			c0-0.7,0.1-1.3,0.1-1.3H308c-1.1,2.2-3.7,3.6-6.4,3.6c-4.1,0-7.3-1.9-7.3-7.7V68.8z"/>
		<path class="st4" d="M326.6,68.3c6.1,0,9.5,4.2,9.5,10c0,0.7-0.2,2.2-0.2,2.2h-13c0.5,2.5,2.6,3.7,4.8,3.7c3,0,5.7-2.1,5.7-2.1
			l2.6,4.8c0,0-3.3,3-8.8,3c-7.4,0-11.3-5.3-11.3-10.8C315.9,73,320,68.3,326.6,68.3z M329.2,76.5c0-1.6-1.1-3-2.7-3
			c-2,0-3,1.4-3.3,3H329.2z"/>
		<path class="st4" d="M354.7,68.3c6.1,0,9.5,4.2,9.5,10c0,0.7-0.2,2.2-0.2,2.2h-13c0.5,2.5,2.6,3.7,4.8,3.7c3,0,5.7-2.1,5.7-2.1
			l2.6,4.8c0,0-3.3,3-8.8,3c-7.4,0-11.3-5.3-11.3-10.8C344,73,348.1,68.3,354.7,68.3z M357.3,76.5c0-1.6-1.1-3-2.7-3
			c-2,0-3,1.4-3.3,3H357.3z"/>
		<path class="st4" d="M367,82.2c0,0,2.3,2.1,5.2,2.1c1,0,2-0.3,2-1c0-1.8-9.6-2-9.6-8.7c0-3.9,3.7-6.3,8.5-6.3
			c4.8,0,7.2,2.4,7.2,2.4l-2.4,4.9c0,0-2-1.7-4.9-1.7c-1,0-2,0.3-2,1c0,1.6,9.6,1.8,9.6,8.4c0,3.5-3.1,6.5-8.4,6.5
			c-5.2,0-8.2-3-8.2-3L367,82.2z"/>
		<path class="st4" d="M383.1,74.6h-2.6v-5.4h2.8v-5.9h6.7v5.9h4.3v5.4H390v6.3c0,2.3,2.4,2.6,3.7,2.6c0.6,0,0.9,0,0.9,0v6
			c0,0-0.8,0.1-1.9,0.1c-3.3,0-9.6-0.9-9.6-7.8V74.6z"/>
		<path class="st4" d="M406.6,76.6h0.3v-0.4c0-1.7-1.3-2.3-3-2.3c-2.6,0-5.6,2-5.6,2l-2.4-4.9c0,0,3.6-2.7,8.6-2.7
			c5.8,0,9.3,3.2,9.3,8.4v12.7h-6.3v-1.2c0-0.7,0.1-1.3,0.1-1.3h-0.1c0,0-1.5,3-5.8,3c-3.8,0-7-2.6-7-6.6
			C394.7,77.2,403.4,76.6,406.6,76.6z M403.6,84.6c1.8,0,3.4-2,3.4-3.6v-0.4h-0.6c-2.2,0-4.7,0.6-4.7,2.4
			C401.6,83.8,402.2,84.6,403.6,84.6z"/>
		<path class="st4" d="M424.2,68.8h6.6v1.8c0,0.7-0.1,1.3-0.1,1.3h0.1c1-1.6,2.9-3.6,6.6-3.6c4.2,0,7.4,1.9,7.4,7.7v13.4h-6.9V77.3
			c0-1.9-0.8-2.7-2.3-2.7c-2.2,0-3.5,1.2-4.1,3c-0.3,0.8-0.4,1.7-0.4,2.7v9.1h-6.9V68.8z"/>
		<path class="st4" d="M457.6,76.6h0.3v-0.4c0-1.7-1.3-2.3-3-2.3c-2.6,0-5.6,2-5.6,2l-2.4-4.9c0,0,3.6-2.7,8.6-2.7
			c5.8,0,9.3,3.2,9.3,8.4v12.7h-6.3v-1.2c0-0.7,0.1-1.3,0.1-1.3h-0.1c0,0-1.5,3-5.8,3c-3.8,0-7-2.6-7-6.6
			C445.7,77.2,454.4,76.6,457.6,76.6z M454.6,84.6c1.8,0,3.4-2,3.4-3.6v-0.4h-0.6c-2.2,0-4.7,0.6-4.7,2.4
			C452.6,83.8,453.2,84.6,454.6,84.6z"/>
		<path class="st4" d="M464.4,68.8h7.3l3.2,11c0.4,1.3,0.8,3.6,0.8,3.6h0.1c0,0,0.4-2.2,0.8-3.6l3.2-11h7.3l-7,20.6h-8.4L464.4,68.8
			z"/>
		<path class="st4" d="M487.1,68.8h6.9v20.6h-6.9V68.8z M487.2,60.8h6.8v5.4h-6.8V60.8z"/>
		<path class="st4" d="M504.8,68.3c4.2,0,5.4,1.6,5.4,1.6h0.1c0,0,0-0.4,0-0.9v-8.2h6.9v28.6h-6.5V88c0-0.6,0-1.2,0-1.2h-0.1
			c0,0-1.7,3-6,3c-5.6,0-9.3-4.4-9.3-10.8C495.4,72.6,499.3,68.3,504.8,68.3z M506.4,84.2c2.1,0,4-1.5,4-5.1c0-2.5-1.3-4.9-4-4.9
			c-2.2,0-4,1.8-4,4.9C502.3,82.2,504,84.2,506.4,84.2z"/>
		<path class="st4" d="M530.3,76.6h0.3v-0.4c0-1.7-1.3-2.3-3-2.3c-2.6,0-5.6,2-5.6,2l-2.4-4.9c0,0,3.6-2.7,8.6-2.7
			c5.8,0,9.3,3.2,9.3,8.4v12.7h-6.3v-1.2c0-0.7,0.1-1.3,0.1-1.3h-0.1c0,0-1.5,3-5.8,3c-3.8,0-7-2.6-7-6.6
			C518.3,77.2,527.1,76.6,530.3,76.6z M527.2,84.6c1.8,0,3.4-2,3.4-3.6v-0.4H530c-2.2,0-4.7,0.6-4.7,2.4
			C525.3,83.8,525.9,84.6,527.2,84.6z"/>
		<path class="st4" d="M547.9,68.3c4.2,0,5.4,1.6,5.4,1.6h0.1c0,0,0-0.4,0-0.9v-8.2h6.9v28.6h-6.5V88c0-0.6,0-1.2,0-1.2h-0.1
			c0,0-1.7,3-6,3c-5.6,0-9.3-4.4-9.3-10.8C538.5,72.6,542.4,68.3,547.9,68.3z M549.5,84.2c2.1,0,4-1.5,4-5.1c0-2.5-1.3-4.9-4-4.9
			c-2.2,0-4,1.8-4,4.9C545.4,82.2,547.1,84.2,549.5,84.2z"/>
		<path class="st4" d="M89.5,136c2.5,0,4.8-0.9,4.8-4v-0.7c0-0.2,0-0.8,0-0.8h-0.1c-1.2,1.4-2.8,2.2-5.2,2.2
			c-6.2,0-9.3-5.1-9.3-10.4c0-5.2,3-10.1,9.2-10.1c3.8,0,5.6,2,5.6,2h0.1c0,0,0-0.2,0-0.5v-1h6.5v18.7c0,7.5-6,10.3-11.6,10.3
			c-2.8,0-5.8-0.8-7.8-1.8l2-5.2C83.7,134.7,86.3,136,89.5,136z M94.4,122.5c0-3.6-1.9-4.4-4-4.4c-2.4,0-3.7,1.8-3.7,4.1
			c0,2.6,1.2,4.8,4,4.8C92.5,127,94.4,126.1,94.4,122.5z"/>
		<path class="st4" d="M114.3,120.6h0.3v-0.4c0-1.7-1.3-2.3-3-2.3c-2.6,0-5.6,2-5.6,2l-2.4-4.9c0,0,3.6-2.7,8.6-2.7
			c5.8,0,9.3,3.2,9.3,8.4v12.7h-6.3v-1.2c0-0.7,0.1-1.3,0.1-1.3h-0.1c0,0-1.5,3-5.8,3c-3.8,0-7-2.6-7-6.6
			C102.3,121.2,111.1,120.6,114.3,120.6z M111.3,128.6c1.8,0,3.4-2,3.4-3.6v-0.4H114c-2.2,0-4.7,0.6-4.7,2.4
			C109.3,127.8,109.9,128.6,111.3,128.6z"/>
		<path class="st4" d="M123.9,112.8h6.6v1.8c0,0.7-0.1,1.3-0.1,1.3h0.1c1-1.6,2.9-3.6,6.6-3.6c4.2,0,7.4,1.9,7.4,7.7v13.4h-6.9
			v-12.1c0-1.9-0.8-2.7-2.3-2.7c-2.2,0-3.5,1.2-4.1,3c-0.3,0.8-0.4,1.7-0.4,2.7v9.1h-6.9V112.8z"/>
		<path class="st4" d="M156.2,112.3c6.1,0,9.5,4.2,9.5,10c0,0.7-0.2,2.2-0.2,2.2h-13c0.5,2.5,2.6,3.7,4.8,3.7c3,0,5.7-2.1,5.7-2.1
			l2.6,4.8c0,0-3.3,3-8.8,3c-7.4,0-11.3-5.3-11.3-10.8C145.5,117,149.5,112.3,156.2,112.3z M158.7,120.5c0-1.6-1.1-3-2.7-3
			c-2,0-3,1.4-3.3,3H158.7z"/>
		<path class="st4" d="M168.4,126.2c0,0,2.3,2.1,5.2,2.1c1,0,2-0.3,2-1c0-1.8-9.6-2-9.6-8.7c0-3.9,3.7-6.3,8.5-6.3
			c4.8,0,7.2,2.4,7.2,2.4l-2.4,4.9c0,0-2-1.7-4.9-1.7c-1,0-2,0.3-2,1c0,1.6,9.6,1.8,9.6,8.4c0,3.5-3.1,6.5-8.4,6.5
			c-5.2,0-8.2-3-8.2-3L168.4,126.2z"/>
		<path class="st4" d="M213.6,112.3c4.2,0,5.4,1.6,5.4,1.6h0.1c0,0,0-0.4,0-0.9v-8.2h6.9v28.6h-6.5V132c0-0.6,0-1.2,0-1.2h-0.1
			c0,0-1.7,3-6,3c-5.6,0-9.3-4.4-9.3-10.8C204.2,116.6,208.1,112.3,213.6,112.3z M215.2,128.2c2.1,0,4-1.5,4-5.1
			c0-2.5-1.3-4.9-4-4.9c-2.2,0-4,1.8-4,4.9C211.1,126.2,212.8,128.2,215.2,128.2z"/>
		<path class="st4" d="M228.6,112.8h6.9v20.6h-6.9V112.8z M228.7,104.8h6.8v5.4h-6.8V104.8z"/>
		<path class="st4" d="M238.3,112.8h6.6v1.8c0,0.7-0.1,1.3-0.1,1.3h0.1c1-1.6,2.9-3.6,6.6-3.6c4.2,0,7.4,1.9,7.4,7.7v13.4H252v-12.1
			c0-1.9-0.8-2.7-2.3-2.7c-2.2,0-3.5,1.2-4.1,3c-0.3,0.8-0.4,1.7-0.4,2.7v9.1h-6.9V112.8z"/>
		<path class="st4" d="M270.6,112.3c6.1,0,9.5,4.2,9.5,10c0,0.7-0.2,2.2-0.2,2.2h-13c0.5,2.5,2.6,3.7,4.8,3.7c3,0,5.7-2.1,5.7-2.1
			l2.6,4.8c0,0-3.3,3-8.8,3c-7.4,0-11.3-5.3-11.3-10.8C259.8,117,263.9,112.3,270.6,112.3z M273.1,120.5c0-1.6-1.1-3-2.7-3
			c-2,0-3,1.4-3.3,3H273.1z"/>
		<path class="st4" d="M281.4,112.8h6.6v3.5c0,0.7-0.1,1.3-0.1,1.3h0.1c0.9-2.8,3.5-5.1,6.6-5.1c0.4,0,0.8,0.1,0.8,0.1v6.8
			c0,0-0.6-0.1-1.4-0.1c-1.6,0-4.3,0.5-5.3,3.6c-0.2,0.8-0.4,1.7-0.4,2.8v7.8h-6.9V112.8z"/>
		<path class="st4" d="M306.4,112.3c6.5,0,11.7,4.4,11.7,10.8c0,6.4-5.2,10.7-11.7,10.7c-6.5,0-11.7-4.3-11.7-10.7
			C294.7,116.7,299.9,112.3,306.4,112.3z M306.4,128.1c2.5,0,4.7-1.9,4.7-5c0-3.1-2.2-5.1-4.7-5.1c-2.5,0-4.7,2-4.7,5.1
			C301.7,126.2,303.9,128.1,306.4,128.1z"/>
		<path class="st4" d="M341.3,112.8h6.2v1c0,0.7-0.1,1.3-0.1,1.3h0.1c0,0,1.9-2.8,6.2-2.8c5.6,0,9.3,4.4,9.3,10.8
			c0,6.5-4.1,10.8-9.6,10.8c-3.4,0-5.2-2-5.2-2h-0.1c0,0,0.1,0.7,0.1,1.8v7.7h-6.9V112.8z M352.1,128.2c2.2,0,4-1.8,4-4.9
			c0-3.1-1.6-5.1-4-5.1c-2.1,0-4,1.5-4,5.1C348.1,125.7,349.4,128.2,352.1,128.2z"/>
		<path class="st4" d="M374.8,120.6h0.3v-0.4c0-1.7-1.3-2.3-3-2.3c-2.6,0-5.6,2-5.6,2l-2.4-4.9c0,0,3.6-2.7,8.6-2.7
			c5.8,0,9.3,3.2,9.3,8.4v12.7h-6.3v-1.2c0-0.7,0.1-1.3,0.1-1.3h-0.1c0,0-1.5,3-5.8,3c-3.8,0-7-2.6-7-6.6
			C362.9,121.2,371.6,120.6,374.8,120.6z M371.8,128.6c1.8,0,3.4-2,3.4-3.6v-0.4h-0.6c-2.2,0-4.7,0.6-4.7,2.4
			C369.8,127.8,370.4,128.6,371.8,128.6z"/>
		<path class="st4" d="M384.4,112.8h6.6v3.5c0,0.7-0.1,1.3-0.1,1.3h0.1c0.9-2.8,3.5-5.1,6.6-5.1c0.4,0,0.8,0.1,0.8,0.1v6.8
			c0,0-0.6-0.1-1.4-0.1c-1.6,0-4.3,0.5-5.3,3.6c-0.2,0.8-0.4,1.7-0.4,2.8v7.8h-6.9V112.8z"/>
		<path class="st4" d="M409.6,120.6h0.3v-0.4c0-1.7-1.3-2.3-3-2.3c-2.6,0-5.6,2-5.6,2l-2.4-4.9c0,0,3.6-2.7,8.6-2.7
			c5.8,0,9.3,3.2,9.3,8.4v12.7h-6.3v-1.2c0-0.7,0.1-1.3,0.1-1.3h-0.1c0,0-1.5,3-5.8,3c-3.8,0-7-2.6-7-6.6
			C397.7,121.2,406.4,120.6,409.6,120.6z M406.6,128.6c1.8,0,3.4-2,3.4-3.6v-0.4h-0.6c-2.2,0-4.7,0.6-4.7,2.4
			C404.6,127.8,405.2,128.6,406.6,128.6z"/>
		<path class="st4" d="M449.3,112.3c4.2,0,5.9,2.2,5.9,2.2h0.1c0,0-0.1-0.4-0.1-1.1v-0.6h6.5v28.6h-6.9v-8.1c0-1,0.1-1.8,0.1-1.8
			h-0.1c0,0-1.8,2.3-5.6,2.3c-5.6,0-9.3-4.4-9.3-10.8C439.9,116.6,443.8,112.3,449.3,112.3z M450.9,128.2c2.1,0,4-1.5,4-5.1
			c0-2.5-1.3-4.9-4-4.9c-2.2,0-4,1.8-4,4.9C446.8,126.2,448.5,128.2,450.9,128.2z"/>
		<path class="st4" d="M464.1,112.8h6.9v12.1c0,1.9,0.8,2.7,2.2,2.7c3,0,4.4-2.6,4.4-5.7v-9.1h6.9v20.6h-6.6v-1.8
			c0-0.7,0.1-1.3,0.1-1.3h-0.1c-1.1,2.2-3.7,3.6-6.4,3.6c-4.1,0-7.3-1.9-7.3-7.7V112.8z"/>
		<path class="st4" d="M496.4,112.3c6.1,0,9.5,4.2,9.5,10c0,0.7-0.2,2.2-0.2,2.2h-13c0.5,2.5,2.6,3.7,4.8,3.7c3,0,5.7-2.1,5.7-2.1
			l2.6,4.8c0,0-3.3,3-8.8,3c-7.4,0-11.3-5.3-11.3-10.8C485.7,117,489.8,112.3,496.4,112.3z M499,120.5c0-1.6-1.1-3-2.7-3
			c-2,0-3,1.4-3.3,3H499z"/>
		<path class="st4" d="M529.1,104.8h6.9v20.1c0,2,0.4,2.6,1.9,2.6c0.4,0,0.8,0,0.8,0v6c0,0-1,0.1-2.1,0.1c-3.7,0-7.6-0.9-7.6-7.8
			V104.8z"/>
		<path class="st4" d="M550,112.3c6.5,0,11.7,4.4,11.7,10.8c0,6.4-5.2,10.7-11.7,10.7c-6.5,0-11.7-4.3-11.7-10.7
			C538.4,116.7,543.6,112.3,550,112.3z M550.1,128.1c2.5,0,4.7-1.9,4.7-5c0-3.1-2.2-5.1-4.7-5.1s-4.7,2-4.7,5.1
			C545.4,126.2,547.5,128.1,550.1,128.1z"/>
		<path class="st4" d="M127.1,180c2.5,0,4.8-0.9,4.8-4v-0.7c0-0.2,0-0.8,0-0.8h-0.1c-1.2,1.4-2.8,2.2-5.2,2.2
			c-6.2,0-9.3-5.1-9.3-10.4c0-5.2,3-10.1,9.2-10.1c3.8,0,5.6,2,5.6,2h0.1c0,0,0-0.2,0-0.5v-1h6.5v18.7c0,7.5-6,10.3-11.6,10.3
			c-2.8,0-5.8-0.8-7.8-1.8l2-5.2C121.3,178.7,123.8,180,127.1,180z M132,166.5c0-3.6-1.9-4.4-4-4.4c-2.4,0-3.7,1.8-3.7,4.1
			c0,2.6,1.2,4.8,4,4.8C130.1,171,132,170.1,132,166.5z"/>
		<path class="st4" d="M151.9,164.6h0.3v-0.4c0-1.7-1.3-2.3-3-2.3c-2.6,0-5.6,2-5.6,2l-2.4-4.9c0,0,3.6-2.7,8.6-2.7
			c5.8,0,9.3,3.2,9.3,8.4v12.7h-6.3v-1.2c0-0.7,0.1-1.3,0.1-1.3h-0.1c0,0-1.5,3-5.8,3c-3.8,0-7-2.6-7-6.6
			C139.9,165.2,148.7,164.6,151.9,164.6z M148.8,172.6c1.8,0,3.4-2,3.4-3.6v-0.4h-0.6c-2.2,0-4.7,0.6-4.7,2.4
			C146.9,171.8,147.5,172.6,148.8,172.6z"/>
		<path class="st4" d="M162.8,170.2c0,0,2.3,2.1,5.2,2.1c1,0,2-0.3,2-1c0-1.8-9.6-2-9.6-8.7c0-3.9,3.7-6.3,8.5-6.3
			c4.8,0,7.2,2.4,7.2,2.4l-2.4,4.9c0,0-2-1.7-4.9-1.7c-1,0-2,0.3-2,1c0,1.6,9.6,1.8,9.6,8.4c0,3.5-3.1,6.5-8.4,6.5
			c-5.2,0-8.2-3-8.2-3L162.8,170.2z"/>
		<path class="st4" d="M178.9,162.6h-2.6v-5.4h2.8v-5.9h6.7v5.9h4.3v5.4h-4.3v6.3c0,2.3,2.4,2.6,3.7,2.6c0.6,0,0.9,0,0.9,0v6
			c0,0-0.8,0.1-1.9,0.1c-3.3,0-9.6-0.9-9.6-7.8V162.6z"/>
		<path class="st4" d="M201.3,156.3c6.1,0,9.5,4.2,9.5,10c0,0.7-0.2,2.2-0.2,2.2h-13c0.5,2.5,2.6,3.7,4.8,3.7c3,0,5.7-2.1,5.7-2.1
			l2.6,4.8c0,0-3.3,3-8.8,3c-7.4,0-11.3-5.3-11.3-10.8C190.6,161,194.7,156.3,201.3,156.3z M203.9,164.5c0-1.6-1.1-3-2.7-3
			c-2,0-3,1.4-3.3,3H203.9z"/>
		<path class="st4" d="M213.6,170.2c0,0,2.3,2.1,5.2,2.1c1,0,2-0.3,2-1c0-1.8-9.6-2-9.6-8.7c0-3.9,3.7-6.3,8.5-6.3
			c4.8,0,7.2,2.4,7.2,2.4l-2.4,4.9c0,0-2-1.7-4.9-1.7c-1,0-2,0.3-2,1c0,1.6,9.6,1.8,9.6,8.4c0,3.5-3.1,6.5-8.4,6.5
			c-5.2,0-8.2-3-8.2-3L213.6,170.2z"/>
		<path class="st4" d="M244.7,156.3c6.1,0,9.5,4.2,9.5,10c0,0.7-0.2,2.2-0.2,2.2h-13c0.5,2.5,2.6,3.7,4.8,3.7c3,0,5.7-2.1,5.7-2.1
			l2.6,4.8c0,0-3.3,3-8.8,3c-7.4,0-11.3-5.3-11.3-10.8C233.9,161,238,156.3,244.7,156.3z M247.2,164.5c0-1.6-1.1-3-2.7-3
			c-2,0-3,1.4-3.3,3H247.2z"/>
		<path class="st4" d="M255.5,156.8h6.6v1.8c0,0.7-0.1,1.3-0.1,1.3h0.1c1-1.6,2.9-3.6,6.6-3.6c4.2,0,7.4,1.9,7.4,7.7v13.4h-6.9
			v-12.1c0-1.9-0.8-2.7-2.3-2.7c-2.2,0-3.5,1.2-4.1,3c-0.3,0.8-0.4,1.7-0.4,2.7v9.1h-6.9V156.8z"/>
		<path class="st4" d="M285.1,148.8h6.9v20.1c0,2,0.4,2.6,1.9,2.6c0.4,0,0.8,0,0.8,0v6c0,0-1,0.1-2.1,0.1c-3.7,0-7.6-0.9-7.6-7.8
			V148.8z"/>
		<path class="st4" d="M306,156.3c6.5,0,11.7,4.4,11.7,10.8c0,6.4-5.2,10.7-11.7,10.7s-11.7-4.3-11.7-10.7
			C294.3,160.7,299.5,156.3,306,156.3z M306,172.1c2.5,0,4.7-1.9,4.7-5c0-3.1-2.2-5.1-4.7-5.1c-2.5,0-4.7,2-4.7,5.1
			C301.3,170.2,303.5,172.1,306,172.1z"/>
		<path class="st4" d="M333.7,156.3c4.2,0,5.9,2.2,5.9,2.2h0.1c0,0-0.1-0.4-0.1-1.1v-0.6h6.5v28.6h-6.9v-8.1c0-1,0.1-1.8,0.1-1.8
			h-0.1c0,0-1.8,2.3-5.6,2.3c-5.6,0-9.3-4.4-9.3-10.8C324.3,160.6,328.2,156.3,333.7,156.3z M335.3,172.2c2.1,0,4-1.5,4-5.1
			c0-2.5-1.3-4.9-4-4.9c-2.2,0-4,1.8-4,4.9C331.2,170.2,332.9,172.2,335.3,172.2z"/>
		<path class="st4" d="M348.5,156.8h6.9v12.1c0,1.9,0.8,2.7,2.2,2.7c3,0,4.4-2.6,4.4-5.7v-9.1h6.9v20.6h-6.6v-1.8
			c0-0.7,0.1-1.3,0.1-1.3h-0.1c-1.1,2.2-3.7,3.6-6.4,3.6c-4.1,0-7.3-1.9-7.3-7.7V156.8z"/>
		<path class="st4" d="M380.8,156.3c6.1,0,9.5,4.2,9.5,10c0,0.7-0.2,2.2-0.2,2.2h-13c0.5,2.5,2.6,3.7,4.8,3.7c3,0,5.7-2.1,5.7-2.1
			l2.6,4.8c0,0-3.3,3-8.8,3c-7.4,0-11.3-5.3-11.3-10.8C370.1,161,374.2,156.3,380.8,156.3z M383.4,164.5c0-1.6-1.1-3-2.7-3
			c-2,0-3,1.4-3.3,3H383.4z"/>
		<path class="st4" d="M406.5,156.3c4.2,0,5.9,2.2,5.9,2.2h0.1c0,0-0.1-0.4-0.1-1.1v-0.6h6.5v28.6h-6.9v-8.1c0-1,0.1-1.8,0.1-1.8
			h-0.1c0,0-1.8,2.3-5.6,2.3c-5.6,0-9.3-4.4-9.3-10.8C397.1,160.6,401,156.3,406.5,156.3z M408.1,172.2c2.1,0,4-1.5,4-5.1
			c0-2.5-1.3-4.9-4-4.9c-2.2,0-4,1.8-4,4.9C404,170.2,405.7,172.2,408.1,172.2z"/>
		<path class="st4" d="M421.3,156.8h6.9v12.1c0,1.9,0.8,2.7,2.2,2.7c3,0,4.4-2.6,4.4-5.7v-9.1h6.9v20.6H435v-1.8
			c0-0.7,0.1-1.3,0.1-1.3H435c-1.1,2.2-3.7,3.6-6.4,3.6c-4.1,0-7.3-1.9-7.3-7.7V156.8z"/>
		<path class="st4" d="M444.4,156.8h6.9v20.6h-6.9V156.8z M444.5,148.8h6.8v5.4h-6.8V148.8z"/>
		<path class="st4" d="M463.3,156.3c6.1,0,9.5,4.2,9.5,10c0,0.7-0.2,2.2-0.2,2.2h-13c0.5,2.5,2.6,3.7,4.8,3.7c3,0,5.7-2.1,5.7-2.1
			l2.6,4.8c0,0-3.3,3-8.8,3c-7.4,0-11.3-5.3-11.3-10.8C452.5,161,456.6,156.3,463.3,156.3z M465.8,164.5c0-1.6-1.1-3-2.7-3
			c-2,0-3,1.4-3.3,3H465.8z"/>
		<path class="st4" d="M474.1,156.8h6.6v3.5c0,0.7-0.1,1.3-0.1,1.3h0.1c0.9-2.8,3.5-5.1,6.6-5.1c0.4,0,0.8,0.1,0.8,0.1v6.8
			c0,0-0.6-0.1-1.4-0.1c-1.6,0-4.3,0.5-5.3,3.6c-0.2,0.8-0.4,1.7-0.4,2.8v7.8h-6.9V156.8z"/>
		<path class="st4" d="M499.3,164.6h0.3v-0.4c0-1.7-1.3-2.3-3-2.3c-2.6,0-5.6,2-5.6,2l-2.4-4.9c0,0,3.6-2.7,8.6-2.7
			c5.8,0,9.3,3.2,9.3,8.4v12.7h-6.3v-1.2c0-0.7,0.1-1.3,0.1-1.3h-0.1c0,0-1.5,3-5.8,3c-3.8,0-7-2.6-7-6.6
			C487.4,165.2,496.1,164.6,499.3,164.6z M496.3,172.6c1.8,0,3.4-2,3.4-3.6v-0.4h-0.6c-2.2,0-4.7,0.6-4.7,2.4
			C494.3,171.8,494.9,172.6,496.3,172.6z"/>
		<path class="st4" d="M510.3,170.2c0,0,2.3,2.1,5.2,2.1c1,0,2-0.3,2-1c0-1.8-9.6-2-9.6-8.7c0-3.9,3.7-6.3,8.5-6.3
			c4.8,0,7.2,2.4,7.2,2.4l-2.4,4.9c0,0-2-1.7-4.9-1.7c-1,0-2,0.3-2,1c0,1.6,9.6,1.8,9.6,8.4c0,3.5-3.1,6.5-8.4,6.5
			c-5.2,0-8.2-3-8.2-3L510.3,170.2z"/>
	</g>
</g>
</svg>
